<?xml version="1.0" standalone="no"?>
<!DOCTYPE svg PUBLIC "-//W3C//DTD SVG 20010904//EN"
 "https://www.w3.org/TR/2001/REC-SVG-20010904/DTD/svg10.dtd">
<svg version="1.0" xmlns="https://www.w3.org/2000/svg"
 width="70.000000pt" height="70.000000pt" viewBox="0 0 70.000000 70.000000"
 preserveAspectRatio="xMidYMid meet">
<metadata>
Created by potrace 1.11, written by Peter Selinger 2001-2013
</metadata>
<g transform="translate(0.000000,70.000000) scale(0.100000,-0.100000)"
fill="#000000" stroke="none">
<path d="M315 663 c-26 -7 -74 -41 -103 -73 -20 -23 -62 -117 -62 -141 0 -5
-7 -23 -15 -38 -31 -61 -39 -150 -19 -201 21 -52 104 -128 169 -155 57 -23
153 -28 215 -11 32 9 53 14 61 15 8 1 19 27 25 58 2 13 -7 45 -20 71 -28 55
-42 58 -123 28 -48 -18 -122 -15 -134 6 -11 17 -9 28 30 138 38 107 45 120 47
84 1 -15 19 -42 43 -65 35 -35 46 -40 78 -37 45 5 69 35 82 100 6 37 5 55 -9
86 -18 39 -81 106 -123 129 -22 12 -103 15 -142 6z"/>
</g>
</svg>
