<?xml version="1.0" encoding="utf-8"?>
<!-- Generator: Adobe Illustrator 19.0.0, SVG Export Plug-In . SVG Version: 6.00 Build 0)  -->
<svg version="1.0" id="Capa_1" xmlns="http://www.w3.org/2000/svg" xmlns:xlink="http://www.w3.org/1999/xlink" x="0px" y="0px"
	 viewBox="0 0 145 100" style="enable-background:new 0 0 145 100;" xml:space="preserve">
<style type="text/css">
	.st0{fill:#0D461B;}
	.st1{fill:#214A29;}
	.st2{fill:#23562F;}
</style>
<g id="XMLID_2_">
	
		<rect id="XMLID_25_" x="47.8" y="18.8" transform="matrix(0.7071 -0.7071 0.7071 0.7071 -10.0077 65.2877)" class="st0" width="51.9" height="51.9"/>
	<g id="XMLID_19_">
		<g id="XMLID_23_">
			<path id="XMLID_24_" class="st1" d="M109.6,42.5c-11-12-22.9-23.8-34.8-35.5l0,0c-0.6-0.5-1.4-0.5-2,0l-1.9,2
				c-11.5,11.7-23,23.4-34.5,35l0,0c-0.4,0.4-0.4,1.1,0,1.5l0,0c2,1.9,4,3.9,6,5.8c10.6,10.3,21,20.4,31.3,30.4l0,0
				c0.1,0.1,0.3,0.1,0.5,0c11.6-11.9,23.3-23.6,35.6-35.4c1.3-1.2,1.3-2,0.2-1c-11.4,9.3-24.4,22.3-37,35.3h1.9
				c-9.4-9.2-18.9-18.1-27.1-26.2c-3.4-3.3-6.7-6.7-10.1-10v0.9C49.7,33,62,20.7,74.2,8.4h-0.8c11.6,11.5,23.2,23,34.8,34.2
				C110.6,45,112.1,45.2,109.6,42.5z"/>
		</g>
	</g>
</g>
<g id="XMLID_1_">
	<g id="XMLID_16_">
		<g id="XMLID_27_">
			<path id="XMLID_28_" class="st2" d="M126,47.4c-9.8,7.1-19,15.6-28.2,23.9C89.4,79,80.9,86.6,72.6,94.3l2.1,0
				c-1.7-1.4-3.3-2.7-5-4.1C52.2,76,35.3,63.1,18.9,47.7c-0.9-0.9-1.7-0.6-1.1,0.3c11.1,14.5,32.2,29.1,47,41.4
				c2.7,2.3,5.4,4.5,8.1,6.8l0,0c0.4,0.3,0.9,0.3,1.3,0c17.5-15.6,35.4-31.1,52.4-47.2C128.4,47.4,128.1,45.9,126,47.4z"/>
		</g>
	</g>
</g>
</svg>
