<?xml version="1.0" encoding="utf-8"?>
<!-- Generator: Adobe Illustrator 19.0.0, SVG Export Plug-In . SVG Version: 6.00 Build 0)  -->
<svg version="1.0" id="Capa_1" xmlns="http://www.w3.org/2000/svg" xmlns:xlink="http://www.w3.org/1999/xlink" x="0px" y="0px"
	 viewBox="0 0 145 100" style="enable-background:new 0 0 145 100;" xml:space="preserve">
<style type="text/css">
	.st0{fill:#0D461B;}
	.st1{fill:#214A29;}
	.st2{fill:#23562F;}
	.st3{fill:#FFFFFF;}
</style>
<g id="XMLID_2_">
	
		<rect id="XMLID_25_" x="47.8" y="18.8" transform="matrix(0.7071 -0.7071 0.7071 0.7071 -10.0077 65.2877)" class="st0" width="51.9" height="51.9"/>
	<g id="XMLID_19_">
		<g id="XMLID_23_">
			<path id="XMLID_24_" class="st1" d="M109.6,42.5c-11-12-22.9-23.8-34.8-35.5l0,0c-0.6-0.5-1.4-0.5-2,0l-1.9,2
				c-11.5,11.7-23,23.4-34.5,35l0,0c-0.4,0.4-0.4,1.1,0,1.5l0,0c2,1.9,4,3.9,6,5.8c10.6,10.3,21,20.4,31.3,30.4l0,0
				c0.1,0.1,0.3,0.1,0.5,0c11.6-11.9,23.3-23.6,35.6-35.4c1.3-1.2,1.3-2,0.2-1c-11.4,9.3-24.4,22.3-37,35.3h1.9
				c-9.4-9.2-18.9-18.1-27.1-26.2c-3.4-3.3-6.7-6.7-10.1-10v0.9C49.7,33,62,20.7,74.2,8.4h-0.8c11.6,11.5,23.2,23,34.8,34.2
				C110.6,45,112.1,45.2,109.6,42.5z"/>
		</g>
	</g>
</g>
<g id="XMLID_1_">
	<g id="XMLID_16_">
		<g id="XMLID_27_">
			<path id="XMLID_28_" class="st2" d="M126,47.4c-9.8,7.1-19,15.6-28.2,23.9C89.4,79,80.9,86.6,72.6,94.3l2.1,0
				c-1.7-1.4-3.3-2.7-5-4.1C52.2,76,35.3,63.1,18.9,47.7c-0.9-0.9-1.7-0.6-1.1,0.3c11.1,14.5,32.2,29.1,47,41.4
				c2.7,2.3,5.4,4.5,8.1,6.8l0,0c0.4,0.3,0.9,0.3,1.3,0c17.5-15.6,35.4-31.1,52.4-47.2C128.4,47.4,128.1,45.9,126,47.4z"/>
		</g>
	</g>
</g>
<path id="XMLID_5_" class="st3" d="M51.4,48.3c-0.7,0-1.4-0.1-2.1-0.4v-1.7h0.8v1.1c0.3,0.1,0.8,0.2,1.4,0.2c0.5,0,1-0.1,1.3-0.4
	c0.3-0.3,0.5-0.6,0.5-1c0-0.2,0-0.4-0.1-0.6c-0.1-0.2-0.2-0.3-0.3-0.4c-0.1-0.1-0.3-0.2-0.5-0.3s-0.5-0.2-0.7-0.3
	c-0.3-0.1-0.5-0.2-0.8-0.3c-0.3-0.1-0.5-0.3-0.7-0.4c-0.2-0.2-0.4-0.4-0.5-0.6s-0.2-0.6-0.2-0.9c0-0.6,0.2-1.2,0.7-1.5
	c0.5-0.4,1.1-0.6,1.9-0.6c0.7,0,1.4,0.1,2,0.4v1.6H53V41c-0.4-0.1-0.8-0.2-1.2-0.2c-0.5,0-1,0.1-1.2,0.4s-0.4,0.6-0.4,0.9
	c0,0.2,0,0.4,0.1,0.6c0.1,0.2,0.2,0.3,0.4,0.4s0.3,0.2,0.6,0.3s0.5,0.2,0.7,0.3c0.3,0.1,0.5,0.2,0.8,0.3c0.3,0.1,0.5,0.3,0.7,0.4
	c0.2,0.2,0.4,0.4,0.5,0.6c0.1,0.3,0.2,0.6,0.2,1c0,0.7-0.2,1.2-0.7,1.6C52.9,48.1,52.2,48.3,51.4,48.3z"/>
<path id="XMLID_7_" class="st3" d="M63.2,47.7c-0.7,0.4-1.5,0.6-2.2,0.6c-1.1,0-1.9-0.4-2.5-1.1c-0.6-0.7-0.9-1.7-0.9-3
	c0-1.3,0.3-2.3,0.9-3c0.6-0.7,1.4-1.1,2.5-1.1c0.7,0,1.5,0.2,2.2,0.5v1.7h-0.8v-1.2c-0.4-0.2-0.9-0.2-1.4-0.2
	c-0.8,0-1.4,0.3-1.8,0.8c-0.4,0.5-0.6,1.4-0.6,2.5c0,1.2,0.2,2,0.7,2.6c0.4,0.6,1.1,0.8,1.8,0.8c0.7,0,1.4-0.2,2.2-0.6V47.7z"/>
<path id="XMLID_11_" class="st3" d="M68.2,47.4h0.9v0.7h-2.7v-0.7h0.9v-6.5h-0.8v-0.7h2.6c0.9,0,1.6,0.2,2,0.5
	c0.4,0.3,0.6,0.8,0.6,1.5c0,1.2-0.6,1.9-1.9,2.2v0c0.1,0.1,0.3,0.2,0.4,0.4s0.4,0.5,0.6,0.9l1,1.8h0.7v0.7h-1.4
	c-0.1-0.3-0.2-0.5-0.3-0.7s-0.2-0.4-0.3-0.6l-0.5-1c-0.2-0.3-0.4-0.6-0.5-0.8c-0.1-0.2-0.3-0.3-0.4-0.4c-0.1-0.1-0.3-0.2-0.6-0.2
	h-0.4V47.4z M68.9,43.7c0.6,0,1.1-0.1,1.4-0.3s0.5-0.6,0.5-1.1c0-0.5-0.1-0.9-0.4-1c-0.3-0.2-0.7-0.3-1.4-0.3h-0.8v2.8H68.9z"/>
<path id="XMLID_14_" class="st3" d="M75.7,44.1c0-1.3,0.3-2.3,0.9-3c0.6-0.7,1.3-1.1,2.3-1.1c0.9,0,1.7,0.4,2.2,1.1s0.8,1.7,0.8,3
	c0,1.3-0.3,2.4-0.9,3.1c-0.6,0.7-1.3,1.1-2.3,1.1c-0.9,0-1.7-0.4-2.2-1.1C76,46.5,75.7,45.4,75.7,44.1z M76.7,44.1
	c0,1.1,0.2,1.9,0.6,2.5c0.4,0.6,0.9,0.9,1.6,0.9s1.2-0.3,1.6-0.9c0.4-0.6,0.6-1.4,0.6-2.5c0-1.1-0.2-1.9-0.5-2.4
	c-0.4-0.5-0.9-0.8-1.6-0.8c-0.7,0-1.2,0.3-1.6,0.8C76.9,42.2,76.7,43,76.7,44.1z"/>
<path id="XMLID_30_" class="st3" d="M88.1,40.9h-0.9v6.5h2.5v-1h0.8v1.8h-5v-0.7h0.9v-6.5h-0.9v-0.7h2.7V40.9z"/>
<path id="XMLID_32_" class="st3" d="M96.2,40.9h-0.9v6.5h2.5v-1h0.8v1.8h-5v-0.7h0.9v-6.5h-0.9v-0.7h2.7V40.9z"/>
</svg>
