<?xml version="1.0" encoding="utf-8"?>
<!-- Generator: Adobe Illustrator 19.0.0, SVG Export Plug-In . SVG Version: 6.00 Build 0)  -->
<svg version="1.0" id="Capa_1" xmlns="http://www.w3.org/2000/svg" xmlns:xlink="http://www.w3.org/1999/xlink" x="0px" y="0px"
	 viewBox="0 0 73 56.5" style="enable-background:new 0 0 73 56.5;" xml:space="preserve">
<style type="text/css">
	.st0{fill:#FFFFFF;}
</style>
<g id="XMLID_5_">
	<g id="XMLID_24_">
		<g id="XMLID_28_">
			<path id="XMLID_29_" class="st0" d="M2.5,54.8C9.8,49.1,45.9,22,53.3,16.4c6.3-4.8,13.9-9.8,18.9-15.5c0.1-0.1-0.1-0.1-0.2,0
				c-7,5.5-14,10.8-21.1,16C47.1,19.6,14.4,44.1,10.6,47c-2,1.5-4,2.9-6,4.4c-1.3,1-2.5,1.7-3.4,2.8C0.5,55.1,1.4,55.6,2.5,54.8z"/>
		</g>
	</g>
</g>
<g id="XMLID_3_">
	<g id="XMLID_4_">
		<g id="XMLID_6_">
			<path id="XMLID_7_" class="st0" d="M0.9,1.9C1.8,3,3.1,3.8,4.3,4.8c2,1.5,4,2.9,6,4.4c3.8,2.9,36.5,27.4,40.3,30.2
				c7.2,5.1,14.2,10.4,21.1,16c0.1,0.1,0.2,0,0.2,0c-5-5.7-12.6-10.8-18.9-15.5C45.7,34.1,9.5,7,2.2,1.3C1.1,0.5,0.2,1,0.9,1.9z"/>
		</g>
	</g>
</g>
</svg>
