<?xml version="1.0" encoding="utf-8"?>
<!-- Generator: Adobe Illustrator 22.0.1, SVG Export Plug-In . SVG Version: 6.00 Build 0)  -->
<svg version="1.1" id="Capa_1" xmlns="http://www.w3.org/2000/svg" xmlns:xlink="http://www.w3.org/1999/xlink" x="0px" y="0px"
	 viewBox="0 0 221 150" style="enable-background:new 0 0 221 150;" xml:space="preserve">
<style type="text/css">
	.st0{fill:#ABC244;}
	.st1{fill:#2B4622;}
	.st2{fill:#FFFFFF;}
	.st3{fill:none;}
	.st4{font-family:'Oswald-Medium';}
	.st5{font-size:19.9524px;}
	.st6{fill:#E4B434;}
</style>
<g>
	<g>
		<g>
			<g>
				<path class="st0" d="M35.6,100.6c1.4,6.9,8.3,12.1,15.3,11.6l3.3-0.2c7-0.5,17.6,3.8,23.6,7.5l15.6,9.7c6,3.7,10.2,1,9.4-6v-0.3
					c-0.8-7,4.3-14.8,11.3-15.3l58-4.2c7-0.5,13.3-6.6,14-13.6l9.8-49.7c0.7-7-4.5-12.9-11.5-13.2l-150-6.5c-7-0.3-11.6,5.1-10.2,12
					L35.6,100.6z"/>
			</g>
		</g>
		<g>
			<g>
				<path class="st1" d="M41.3,96.1c1.4,6.7,8.1,11.7,14.9,11.2l3.2-0.2c6.8-0.5,17.1,3.7,22.9,7.3l15.1,9.4c5.8,3.6,9.9,1,9.1-5.8
					v-0.2c-0.8-6.8,4.2-14.4,11-14.9l56.4-4.1c6.8-0.5,12.9-6.5,13.6-13.3l9.5-48.3c0.7-6.8-4.4-12.6-11.2-12.9L40.2,18
					c-6.8-0.3-11.3,5-9.9,11.6L41.3,96.1z"/>
			</g>
		</g>
		<path class="st2" d="M41.8,56.5c1.1,0.3,1.8,1.3,1.8,2.5c0,1.4-1.2,2.6-2.6,2.6c-1.4,0-2.6-1.2-2.6-2.6c0-0.7,0.3-1.3,0.5-1.8
			l2.3-4.3h1.5L41.8,56.5z M49,56.5c1.1,0.3,1.8,1.3,1.8,2.5c0,1.4-1.2,2.6-2.6,2.6c-1.4,0-2.6-1.2-2.6-2.6c0-0.7,0.3-1.3,0.5-1.8
			l2.3-4.3h1.5L49,56.5z"/>
		<path class="st2" d="M185.1,67.9c-1.1-0.3-1.8-1.3-1.8-2.5c0-1.4,1.2-2.6,2.6-2.6c1.4,0,2.6,1.2,2.6,2.6c0,0.7-0.3,1.3-0.5,1.8
			l-2.3,4.3h-1.5L185.1,67.9z M177.9,67.9c-1.1-0.3-1.8-1.3-1.8-2.5c0-1.4,1.2-2.6,2.6-2.6c1.4,0,2.6,1.2,2.6,2.6
			c0,0.7-0.3,1.3-0.5,1.8l-2.3,4.3H177L177.9,67.9z"/>
		<g>
			<g>
				<rect x="32.1" y="53.5" class="st3" width="161.1" height="27.9"/>
				<text transform="matrix(1 0 0 1 53.0464 69.5845)" class="st2 st4 st5">Google Reviews</text>
			</g>
		</g>
		<g>
			<polygon class="st6" points="119.7,48.8 117,47.4 114.3,48.8 114.9,45.7 112.7,43.6 115.8,43 117,40.5 118.5,43.2 121.5,43.6 
				119.4,45.7 			"/>
			<polygon class="st6" points="131.9,48.8 129.2,47.4 126.5,48.8 126.9,45.7 124.9,43.6 127.8,43 129.2,40.5 130.7,43.2 
				133.6,43.6 131.4,45.7 			"/>
			<polygon class="st6" points="144,48.8 141.3,47.4 138.6,48.8 139.1,45.7 137,43.6 140,43 141.5,40.5 142.7,43.2 145.8,43.6 
				143.6,45.7 			"/>
			<polygon class="st6" points="156.2,48.8 153.5,47.4 150.8,48.8 151.2,45.7 149.2,43.6 152.1,43 153.5,40.5 154.9,43.2 
				157.8,43.6 155.8,45.7 			"/>
			<polygon class="st6" points="168.2,48.8 165.7,47.4 163,48.8 163.4,45.7 161.2,43.6 164.3,43 165.7,40.5 167,43.2 170,43.6 
				167.9,45.7 			"/>
		</g>
	</g>
</g>
</svg>
