<?xml version="1.0" encoding="utf-8"?>
<!-- Generator: Adobe Illustrator 22.0.1, SVG Export Plug-In . SVG Version: 6.00 Build 0)  -->
<svg version="1.1" id="Capa_1" xmlns="http://www.w3.org/2000/svg" xmlns:xlink="http://www.w3.org/1999/xlink" x="0px" y="0px"
	 viewBox="0 0 80 80" style="enable-background:new 0 0 80 80;" xml:space="preserve">
<style type="text/css">
	.st0{fill:#074422;}
</style>
<g id="XMLID_6_">
	
		<rect id="XMLID_11_" x="15.6" y="31" transform="matrix(0.7071 -0.7071 0.7071 0.7071 -21.3534 29.7228)" class="st0" width="19.2" height="19.2"/>
	<g id="XMLID_12_">
		<path id="XMLID_14_" class="st0" d="M38.2,42.7c-4.1,4.1-8.3,8.2-12.4,12.3l-0.6,0.6L24.6,55c-4.6-4.5-9.1-9-13.7-13.6l-0.7-0.7
			l0.7-0.7c0.7-0.7,1.5-1.5,2.2-2.2c3.6-3.7,7.4-7.6,11.3-11.5l0.8-0.8l0.8,0.8c4.7,4.7,9.1,9.6,12.5,14.6c0.1,0.1-0.1,0.2-0.2,0
			c-4.4-4.6-8.8-9.1-13.3-13.6h0.5C21,31.8,16.5,36.4,12,41l-0.1,0.1v-0.7c4.6,4.5,9.2,8.9,13.9,13.4h-1.2l0.9-1l7.5-7.7
			c1.5-1.6,3-3.2,4.7-4.2C39.1,40.1,39.5,41.4,38.2,42.7z"/>
	</g>
</g>
<g id="XMLID_1_">
	<path id="XMLID_3_" class="st0" d="M33.6,73.2c11.5-11.2,22.7-22.7,34-34.1v2.7c-1-1-1.9-1.9-2.9-2.9C54.1,28.3,40.9,17.2,34,4.2
		c-0.1-0.2,0.2-0.3,0.3-0.1C45.7,16.3,57.5,28,69.6,39.6l0.1,0.1l0.7,0.7l-0.7,0.8c-6.2,6.5-12.4,13.1-18.6,19.6
		c-3.2,3.4-6.5,6.8-9.7,10.2c-2,2.1-3.8,4.3-6.4,5.4C33,77.2,32,74.8,33.6,73.2z"/>
</g>
</svg>
