<?xml version="1.0" encoding="utf-8"?>
<!-- Generator: Adobe Illustrator 22.0.1, SVG Export Plug-In . SVG Version: 6.00 Build 0)  -->
<svg version="1.1" id="Capa_1" xmlns="http://www.w3.org/2000/svg" xmlns:xlink="http://www.w3.org/1999/xlink" x="0px" y="0px"
	 viewBox="0 0 128 283" style="enable-background:new 0 0 128 283;" xml:space="preserve">
<style type="text/css">
	.st0{fill:#31312F;}
	.st1{fill:#FFFFFF;}
	.st2{fill:#1D1D1B;}
</style>
<g>
	<path class="st0" d="M52.3,116.8c0-0.3-0.1-0.5-0.2-0.8c0-0.1-0.1-0.3-0.2-0.4c-0.1-0.1-0.2-0.2-0.3-0.3c-0.1,0-0.1-0.1-0.2-0.1
		c-0.1,0-0.1,0-0.1,0.1c0,0,0,0.1,0,0.1c0.4,0,0.9,1.9,1,4.4c0.1,2.5-0.3,4.5-0.7,4.4c-0.4,0-0.8-2-0.9-4.4c-0.1-1.7,0-3.3,0.3-4
		c0,0,0-0.1,0-0.1c0-0.1,0-0.2,0-0.3c0,0,0-0.1,0.1-0.1c0,0,0-0.1,0.1-0.1c0,0,0.1,0,0.1-0.1c0,0,0,0,0,0c0,0,0,0,0,0
		c0,0-0.1,0-0.1,0c-0.1,0-0.2,0.1-0.2,0.2c0,0.1-0.1,0.1-0.1,0.2c0,0.1-0.1,0.2-0.1,0.3c-0.1,0.2-0.1,0.4-0.1,0.6
		c-0.1,0.4-0.1,0.8-0.1,1.2c0,0.8,0,1.5,0,2.3c0,0.8,0.1,1.5,0.2,2.3c0,0.4,0.1,0.8,0.2,1.1c0,0.2,0.1,0.4,0.2,0.6
		c0,0.1,0.1,0.2,0.1,0.3c0,0.1,0.1,0.1,0.1,0.2c0,0,0.1,0.1,0.1,0.1c0,0,0.1,0,0.2,0c0.1,0,0.2-0.1,0.3-0.1c0.1-0.1,0.1-0.1,0.1-0.2
		c0.1-0.1,0.1-0.2,0.1-0.3c0.1-0.2,0.1-0.4,0.2-0.6c0.1-0.4,0.2-0.8,0.2-1.3c0.1-0.8,0.1-1.7,0.1-2.5
		C52.6,118.5,52.5,117.7,52.3,116.8z"/>
	<path class="st0" d="M61.7,109.8c0,0,0.1,0,0.1,0c0-0.1-0.1-0.2-0.1-0.3c0-0.2,0-0.6,0.1-1c0.2-0.8,0.7-1.7,1.3-2.6
		c0.7-0.9,1.4-1.6,2-2c0.6-0.4,1-0.7,1.2-0.5c0.2,0.1,0,0.6-0.3,1.2c-0.3,0.6-0.9,1.4-1.5,2.3c-0.6,0.8-1.2,1.6-1.6,2.1
		c-0.2,0.3-0.4,0.5-0.5,0.7c0,0,0,0.1-0.1,0.1c0,0.1-0.1,0.1-0.2,0.2l0,0C61.9,110,61.8,109.9,61.7,109.8c0,0.1-0.1,0.1-0.1,0.1
		c0,0,0,0,0,0c0,0,0,0,0,0c0,0,0,0,0,0c0.1,0.1,0.2,0.1,0.3,0.1l0,0l0,0c0.1,0,0.2,0,0.2-0.1c0.1,0,0.1-0.1,0.1-0.1
		c0.1-0.1,0.1-0.1,0.2-0.2c0.1-0.1,0.2-0.3,0.3-0.4c0.2-0.3,0.4-0.5,0.6-0.8c0.4-0.5,0.8-1.1,1.2-1.6c0.4-0.5,0.8-1.1,1.2-1.6
		c0.2-0.3,0.4-0.6,0.5-0.9c0.1-0.2,0.1-0.3,0.2-0.5c0-0.1,0-0.2,0-0.3c0-0.1,0-0.1-0.1-0.2c0,0,0,0-0.1-0.1l0,0c0,0,0,0,0,0
		c0,0-0.1,0-0.1,0c-0.2,0-0.3,0-0.4,0.1c-0.1,0-0.2,0.1-0.3,0.1c-0.2,0.1-0.3,0.2-0.5,0.3c-0.3,0.2-0.6,0.5-0.9,0.7
		c-0.6,0.5-1.1,1.1-1.5,1.7c-0.5,0.6-0.9,1.3-1.2,2.1c-0.2,0.5-0.3,1,0,1.5C61.6,109.8,61.6,109.8,61.7,109.8z"/>
	<path class="st0" d="M59.2,145.2c0,0,0.1,0.1,0.1,0.1c0.1,0,0.1,0.1,0.2,0.1l0.1,0c0,0,0,0,0.1,0c0,0,0,0,0.1,0c0,0,0,0,0.1,0
		c0.1,0,0.1,0,0.2-0.1c0.2-0.1,0.3-0.2,0.3-0.3c0.1-0.1,0.2-0.2,0.2-0.3c0.1-0.2,0.2-0.4,0.4-0.6l0.7-1.1c0.3-0.4,0.6-0.9,0.7-1.4
		c0-0.2,0-0.3-0.1-0.3l-1.6,2.6c-0.4,0.7-0.7,1.1-0.9,1c-0.2,0-0.3-0.6-0.1-1.4c0.2-0.8,0.6-1.9,1.2-3c0.6-1.1,1.4-2,1.9-2.5
		c0.6-0.6,1-0.9,1.2-0.7c0.2,0.1,0,0.6-0.3,1.4c-0.3,0.6-0.7,1.4-1.2,2.2c-0.1,0.2-0.1,0.4-0.2,0.6c0,0,0,0.1,0.1,0
		c0.4-0.7,0.7-1.3,1.1-2c0.2-0.3,0.3-0.7,0.5-1.1c0.1-0.2,0.1-0.4,0.2-0.6c0-0.1,0-0.2,0-0.3c0-0.1,0-0.1,0-0.2c0,0,0-0.1-0.1-0.1
		l0,0l0,0l0,0l0,0c0,0,0,0,0,0c0,0,0,0-0.1,0c-0.1,0-0.2,0-0.2,0c-0.1,0-0.1,0-0.2,0.1c-0.1,0-0.2,0.1-0.3,0.2
		c-0.2,0.1-0.3,0.2-0.5,0.4c-0.3,0.3-0.6,0.5-0.8,0.8c-0.5,0.6-1,1.2-1.4,1.9c-0.4,0.7-0.8,1.5-1.1,2.3c-0.1,0.4-0.3,0.8-0.3,1.3
		c0,0.2,0,0.4,0,0.7C59.1,144.9,59.1,145.1,59.2,145.2z"/>
	<path class="st0" d="M55.1,150.4L55.1,150.4c0.1,0.2,0.1,0.5,0.1,0.9c0.1,0.7,0.1,1.7,0,2.8c-0.1,1.1-0.3,2.2-0.5,2.9
		c-0.3,0.7-0.6,1.1-0.8,1.1c-0.2-0.1-0.3-0.5-0.3-1.3c0-0.7,0-1.7,0.1-2.8c0.1-1.1,0.2-2.1,0.5-2.9c0.1-0.4,0.2-0.7,0.4-0.8
		c0.1-0.1,0.2-0.2,0.3-0.3c0,0,0,0,0.1,0c0.1,0,0.2,0.1,0.2,0.1c0.1,0.1,0.1,0.1,0.2,0.2c0,0,0.1,0,0.1,0c0-0.1-0.1-0.2-0.2-0.3
		c0-0.1-0.1-0.1-0.2-0.2c0,0,0,0-0.1,0l0,0c0,0,0,0,0,0c-0.1,0-0.1,0-0.1,0c-0.1,0.1-0.2,0.2-0.3,0.2c-0.1,0.1-0.1,0.2-0.2,0.3
		c-0.2,0.3-0.3,0.7-0.4,1c-0.2,0.7-0.3,1.4-0.3,2.1c-0.1,0.7-0.1,1.4-0.1,2.1c0,0.4,0,0.7,0,1.1c0,0.4,0,0.7,0.1,1.1
		c0,0.1,0.1,0.2,0.1,0.3c0,0.1,0.1,0.1,0.2,0.2l0,0l0,0l0,0l0,0l0,0l0,0c0,0,0.1,0,0.1,0c0.1,0,0.1,0,0.1,0c0.2-0.1,0.2-0.2,0.3-0.2
		c0.1-0.1,0.1-0.2,0.2-0.3c0.2-0.4,0.4-0.7,0.5-1.1c0.2-0.8,0.4-1.5,0.5-2.3c0.1-0.8,0.1-1.6,0.1-2.4c0-0.5,0-1-0.3-1.4
		C55.4,150.4,55.2,150.4,55.1,150.4z"/>
	<path class="st0" d="M59.1,171.2c0.3-0.6,0.5-1.1,0.7-1.8c0.1-0.2,0.1-0.4,0.1-0.6c0-0.1,0-0.2,0-0.3c0-0.1-0.1-0.2-0.2-0.3
		c-0.1-0.1-0.2-0.1-0.3-0.1c0,0-0.1,0-0.1,0.1c0.1,0.1,0.1,0.2,0.1,0.4c0,0.2,0,0.4-0.1,0.7c-0.1,0.5-0.3,1.2-0.7,2
		c-0.3,0.8-0.7,1.4-1,1.9c-0.3,0.5-0.7,0.7-0.9,0.6c-0.2-0.1-0.2-0.5-0.2-1c0.1-0.6,0.3-1.3,0.6-2.1c0.3-0.8,0.7-1.5,1.1-1.9
		c0.2-0.2,0.4-0.4,0.5-0.5c0,0,0,0,0,0c0,0,0.1-0.1,0.2-0.1c0.1,0,0.2-0.1,0.3,0c0,0,0,0,0,0c0,0,0,0,0,0c0,0,0,0,0,0c0,0,0,0,0,0
		c-0.1-0.1-0.3,0-0.4,0c-0.1,0-0.2,0.1-0.2,0.1c-0.1,0.1-0.2,0.2-0.4,0.3c-0.1,0.1-0.1,0.1-0.1,0.2l-0.1,0.1l-0.1,0.1
		c-0.1,0.1-0.2,0.2-0.3,0.3c-0.3,0.5-0.6,1-0.8,1.5c-0.2,0.5-0.4,1-0.5,1.6c-0.1,0.3-0.1,0.5-0.2,0.8c0,0.1,0,0.3,0,0.4
		c0,0.1,0,0.2,0,0.2c0,0.1,0,0.2,0.1,0.3c0,0,0.1,0.1,0.2,0.1c0,0,0,0,0.1,0c0,0,0,0,0.1,0c0,0,0.1,0,0.1,0c0.1,0,0.2-0.1,0.3-0.1
		c0.2-0.1,0.3-0.2,0.4-0.3c0.1-0.1,0.2-0.2,0.3-0.4c0.1-0.1,0.2-0.2,0.3-0.4C58.5,172.3,58.8,171.8,59.1,171.2z"/>
	<path class="st0" d="M74.5,163.3c0-0.1-0.1-0.2-0.3-0.3c-0.1-0.1-0.2-0.1-0.3,0c0,0,0,0.1-0.1,0.1c0.2,0.1,0.3,0.5,0.2,1
		c-0.1,0.6-0.2,1.3-0.6,2.1c-0.3,0.8-0.7,1.4-1.1,1.9c-0.4,0.4-0.7,0.6-0.9,0.5c-0.2-0.1-0.2-0.5-0.1-1c0.1-0.5,0.3-1.2,0.6-2
		c0.5-1.1,1-2,1.4-2.3c0,0,0,0,0-0.1c0-0.1,0.1-0.1,0.1-0.1c0.1,0,0.1-0.1,0.2-0.1c0,0,0,0,0,0c0,0,0,0,0,0c0,0,0,0,0,0c0,0,0,0,0,0
		c-0.2,0-0.3,0-0.3,0.1c-0.1,0-0.2,0.1-0.2,0.1c-0.1,0.1-0.2,0.2-0.3,0.3c-0.2,0.2-0.3,0.5-0.4,0.7c-0.3,0.5-0.5,1-0.7,1.5
		c-0.2,0.5-0.4,1-0.5,1.5c-0.1,0.3-0.1,0.5-0.2,0.8c0,0.1,0,0.3,0,0.4c0,0.1,0,0.2,0.1,0.3c0,0,0.1,0.1,0.1,0.1l0,0l0,0l0,0l0,0
		c0,0,0.1,0,0.1,0c0.1,0,0.2,0,0.3,0c0.1,0,0.2-0.1,0.2-0.1c0.1-0.1,0.3-0.2,0.4-0.3c0.2-0.2,0.4-0.4,0.6-0.7c0.4-0.5,0.6-1,0.9-1.6
		c0.2-0.6,0.4-1.2,0.5-1.8c0-0.2,0.1-0.4,0-0.6C74.5,163.5,74.5,163.4,74.5,163.3z"/>
	<path class="st0" d="M71.8,149c0.1,0.2,0.2,0.4,0.4,0.6c0.1,0.1,0.2,0.1,0.3,0l0,0c-0.1-0.2-0.3-0.4-0.4-0.8
		c-0.2-0.7-0.3-1.6-0.2-2.6c0.1-1,0.2-1.9,0.4-2.5c0.2-0.6,0.4-1,0.6-1c0.2,0,0.4,0.4,0.5,1.1c0.1,0.7,0.1,1.6,0.1,2.5
		c-0.1,1-0.1,1.8-0.2,2.4c0,0.3-0.1,0.6-0.2,0.8c-0.1,0.2-0.1,0.3-0.2,0.3c0,0,0,0-0.1,0c-0.1,0-0.2,0-0.2,0c-0.1,0-0.2-0.1-0.2-0.1
		c0,0-0.1,0,0,0.1c0.1,0.1,0.1,0.1,0.3,0.2c0.1,0,0.1,0.1,0.2,0.1c0,0,0.1,0,0.1,0l0,0c0,0,0,0,0,0c0,0,0,0,0.1,0
		c0.1-0.1,0.2-0.2,0.2-0.3c0,0,0-0.1,0-0.1l0-0.1l0-0.1c0.1-0.3,0.1-0.6,0.1-1c0.1-0.6,0.1-1.3,0.1-1.9c0-0.6,0.1-1.3,0-1.9
		c0-0.3,0-0.6-0.1-1c0-0.2-0.1-0.3-0.1-0.5c0-0.2-0.1-0.3-0.2-0.5c-0.1-0.1-0.1-0.2-0.3-0.3c0,0-0.1,0-0.1,0l0,0h0l0,0
		c0,0-0.1,0-0.1,0c-0.1,0-0.1,0.1-0.2,0.1c-0.1,0.1-0.2,0.2-0.2,0.3c-0.1,0.1-0.1,0.2-0.1,0.3c-0.1,0.3-0.2,0.7-0.3,1
		c-0.2,0.7-0.3,1.4-0.4,2c-0.1,0.7-0.1,1.5,0.1,2.2C71.7,148.6,71.7,148.8,71.8,149z"/>
	<path class="st0" d="M84,126.9c-0.1-0.1-0.1-0.2-0.3-0.3c-0.1-0.1-0.2-0.1-0.3,0c0,0,0,0.1-0.1,0.1c0.2,0,0.3,0.5,0.4,1.1
		c0,0.6,0,1.4-0.1,2.3c-0.2,1.8-0.7,3.3-1.2,3.2c-0.4-0.1-0.6-1.6-0.4-3.4c0.1-0.9,0.3-1.8,0.6-2.3c0.1-0.3,0.2-0.5,0.4-0.6
		c0,0,0,0,0-0.1c0-0.1,0.1-0.1,0.1-0.2c0.1-0.1,0.1-0.1,0.3-0.1c0,0,0,0,0,0c0,0,0,0-0.1,0c-0.2,0-0.3,0.1-0.4,0.1
		c-0.1,0.1-0.1,0.1-0.2,0.2c-0.1,0.1-0.2,0.3-0.2,0.4c-0.1,0.1-0.1,0.3-0.2,0.4c-0.1,0.1-0.1,0.3-0.1,0.4c-0.2,0.6-0.3,1.2-0.4,1.8
		c-0.1,0.6-0.1,1.2-0.1,1.8c0,0.3,0,0.6,0.1,0.9c0,0.2,0.1,0.3,0.1,0.5c0,0.1,0.1,0.2,0.1,0.2c0,0.1,0.1,0.2,0.2,0.2
		c0.1,0,0.2,0.1,0.2,0.1c0.1,0,0.2,0,0.2-0.1c0.1-0.1,0.2-0.1,0.2-0.2c0.1-0.2,0.2-0.3,0.3-0.5c0.1-0.3,0.3-0.6,0.3-0.9
		c0.2-0.6,0.3-1.3,0.4-1.9c0.1-0.7,0.2-1.3,0.2-2c0-0.2,0-0.4,0-0.7C84.1,127.1,84,127,84,126.9z"/>
	<path class="st0" d="M81.3,109.3c0-0.1-0.1-0.2-0.2-0.3c-0.1-0.1-0.2-0.2-0.3-0.3c-0.1-0.1-0.3,0-0.3,0c0,0,0,0.1,0,0.1
		c0.2,0,0.4,0.4,0.5,1c0.1,0.6,0.2,1.5,0.2,2.4c0,0.9,0,1.7-0.1,2.4c0,0.3-0.1,0.6-0.1,0.7c-0.1,0.2-0.1,0.3-0.2,0.3
		c-0.1,0-0.2,0-0.4-0.2c-0.1-0.2-0.3-0.4-0.4-0.7c-0.2-0.6-0.4-1.5-0.4-2.5c0-1,0.1-1.8,0.3-2.4c0.1-0.3,0.2-0.5,0.2-0.7
		c0,0,0,0,0-0.1c0-0.1,0-0.1,0.1-0.2c0-0.1,0.1-0.2,0.2-0.2c0,0,0,0,0,0c0,0,0,0-0.1,0c-0.2,0-0.3,0.1-0.3,0.2
		c-0.1,0.1-0.1,0.2-0.1,0.2c-0.1,0.2-0.1,0.3-0.2,0.5c-0.1,0.3-0.1,0.6-0.2,0.9c-0.1,0.6-0.1,1.2-0.1,1.8c0,0.6,0,1.2,0.2,1.8
		c0.1,0.3,0.1,0.6,0.3,0.9c0.1,0.1,0.1,0.3,0.2,0.4c0,0,0,0.1,0.1,0.1l0,0.1l0,0c0.1,0.1,0.1,0.1,0.2,0.2c0.1,0,0.1,0.1,0.2,0
		c0.1,0,0.2,0,0.2-0.1c0.1-0.1,0.2-0.2,0.2-0.3c0,0,0-0.1,0.1-0.1c0,0,0-0.1,0-0.1c0-0.1,0-0.2,0.1-0.3c0.1-0.3,0.1-0.7,0.1-1
		c0.1-0.7,0.1-1.3,0.1-2c0-0.7,0-1.4-0.1-2.1C81.5,109.8,81.4,109.5,81.3,109.3z"/>
	<path class="st0" d="M63.6,25.7c0-0.1-0.1-0.2-0.2-0.4c-0.1-0.1-0.2-0.2-0.3-0.3c-0.1-0.1-0.3-0.1-0.3,0c0,0,0,0.1,0,0.1
		c0.2,0,0.4,0.4,0.5,1.2c0.1,0.7,0.2,1.7,0.1,2.8c-0.2,2.2-0.7,3.9-1.1,3.8c-0.4,0-0.6-1.8-0.5-4c0.1-1.1,0.2-2,0.4-2.7
		c0.1-0.3,0.1-0.6,0.2-0.8c0,0,0-0.1,0-0.1c0-0.1,0-0.2,0.1-0.2c0,0,0-0.1,0.1-0.1c0,0,0.1-0.1,0.2-0.1c0,0,0,0,0,0c0,0,0,0-0.1,0
		c-0.1,0-0.2,0.1-0.2,0.1c0,0-0.1,0.1-0.1,0.1c-0.1,0.1-0.1,0.2-0.1,0.3c-0.1,0.2-0.1,0.3-0.2,0.5c-0.1,0.3-0.1,0.7-0.2,1
		c-0.1,0.7-0.2,1.4-0.2,2c0,0.7-0.1,1.4-0.1,2.1c0,0.3,0,0.7,0.1,1c0,0.2,0.1,0.4,0.1,0.5c0,0.1,0.1,0.2,0.1,0.3
		c0,0,0.1,0.1,0.1,0.1c0,0,0.1,0,0.1,0.1c0,0,0,0,0.1,0l0,0c0,0,0,0,0,0c0.1,0,0.2-0.1,0.2-0.1c0.1,0,0.1-0.1,0.1-0.1
		c0.1-0.1,0.1-0.2,0.2-0.3c0.1-0.2,0.2-0.4,0.2-0.5c0.1-0.4,0.2-0.7,0.3-1.1c0.2-0.7,0.3-1.5,0.3-2.2c0.1-0.8,0.1-1.6,0-2.4
		C63.7,26.2,63.7,26,63.6,25.7z"/>
	<path class="st0" d="M71,58.6c0,0.2,0.1,0.4,0.2,0.6c0,0.1,0.1,0.1,0.1,0.2c0.1,0.1,0.2,0.1,0.3,0.1c0.1,0,0.1,0,0.2,0
		c0,0,0.1,0,0.1-0.1c0.1,0,0.1-0.1,0.2-0.1c0.2-0.2,0.3-0.4,0.4-0.5c0.3-0.7,0.5-1.5,0.6-2.2c0-0.4,0.1-0.8,0.1-1.2
		c0-0.4,0-0.8,0-1.2c0-0.5,0-0.9-0.2-1.4c-0.1-0.1-0.2-0.2-0.3-0.2c0,0.7,0.1,1.6,0.1,2.7c0,1.1-0.1,2.1-0.3,2.8
		c-0.2,0.7-0.5,1.1-0.7,1.1c-0.2-0.1-0.3-0.5-0.4-1.2C71,57.3,71,56.4,71,55.3c0-1.1,0.2-2.1,0.4-2.8c0.3-0.7,0.6-1.1,0.8-1
		c0.1,0.1,0.2,0.3,0.2,0.7c0.1,0.2,0.1,0.3,0.2,0.5c0,0,0.1,0,0.1,0c0-0.2,0-0.3-0.1-0.5c0-0.2,0-0.4-0.1-0.6c0-0.1-0.1-0.1-0.1-0.2
		c0,0-0.1-0.1-0.1-0.1c0,0,0,0,0,0l0,0c0,0-0.1,0-0.1,0c-0.1,0-0.2,0-0.2,0.1c-0.1,0-0.1,0.1-0.1,0.1c-0.2,0.1-0.3,0.3-0.3,0.5
		c-0.2,0.3-0.3,0.7-0.4,1c-0.1,0.3-0.1,0.7-0.2,1c-0.1,0.7-0.1,1.4-0.1,2.1c0,0.7,0,1.4,0.1,2.1C70.9,58.2,70.9,58.4,71,58.6z"/>
	<path class="st0" d="M55.4,57.3c-0.1-0.7-0.1-1.3-0.4-1.9c-0.1-0.2-0.2-0.2-0.3-0.2c0.2,1,0.4,2.3,0.5,3.9c0.2,1.5,0.2,2.9,0.1,4
		c-0.1,1-0.3,1.7-0.5,1.7c-0.2,0-0.4-0.6-0.6-1.6c-0.2-1-0.4-2.3-0.5-3.9c-0.2-1.5-0.2-2.9-0.1-4c0-0.5,0.1-0.9,0.2-1.2
		c0.1-0.3,0.2-0.4,0.3-0.4c0.1,0,0.2,0.2,0.3,0.4c0,0.1,0.1,0.3,0.1,0.4c0.1,0.2,0.2,0.5,0.3,0.7c0,0,0.1,0,0.1,0
		c-0.1-0.2-0.1-0.5-0.2-0.7c0-0.1-0.1-0.2-0.1-0.4c0-0.1-0.1-0.2-0.2-0.4c0-0.1-0.1-0.1-0.2-0.2c0,0-0.1-0.1-0.2-0.1c0,0,0,0,0,0
		l0,0l0,0c0,0,0,0,0,0l0,0c0,0-0.1,0-0.1,0c0,0,0,0,0,0c-0.1,0.1-0.1,0.1-0.2,0.2c0,0.1-0.1,0.1-0.1,0.2c-0.1,0.2-0.1,0.5-0.2,0.7
		c-0.1,1-0.1,1.9-0.1,2.9c0,1,0.1,1.9,0.2,2.8c0.1,0.9,0.2,1.9,0.4,2.8c0,0.3,0.1,0.5,0.2,0.8c0,0.1,0.1,0.3,0.1,0.4
		c0,0.1,0.1,0.3,0.2,0.4c0,0.1,0.1,0.2,0.2,0.2c0,0,0.1,0,0.1,0l0,0l0,0l0,0l0,0l0,0l0,0c0,0,0,0,0,0c0.1,0,0.1-0.1,0.2-0.1
		c0.1-0.1,0.1-0.2,0.2-0.2c0-0.1,0.1-0.1,0.1-0.2c0.1-0.3,0.2-0.5,0.2-0.8c0.2-1,0.2-2.1,0.2-3.1C55.6,59.4,55.5,58.4,55.4,57.3z"/>
	<path class="st0" d="M59,80.3c-0.1-0.7-0.1-1.3-0.4-1.9c-0.1-0.2-0.2-0.2-0.3-0.2c0.2,1,0.4,2.3,0.5,3.9c0.2,1.5,0.2,2.9,0.1,4
		c-0.1,1-0.3,1.7-0.5,1.7c-0.2,0-0.4-0.6-0.6-1.6c-0.2-1-0.4-2.3-0.5-3.9c-0.2-1.5-0.2-2.9-0.1-4c0-0.5,0.1-0.9,0.2-1.2
		c0.1-0.3,0.2-0.4,0.3-0.4c0.1,0,0.2,0.2,0.3,0.4c0,0.1,0.1,0.3,0.1,0.4c0.1,0.2,0.2,0.5,0.3,0.7c0,0,0.1,0,0.1,0
		c-0.1-0.2-0.1-0.5-0.2-0.7c0-0.1-0.1-0.2-0.1-0.4c0-0.1-0.1-0.2-0.2-0.4c0-0.1-0.1-0.1-0.2-0.2c0,0-0.1-0.1-0.2-0.1c0,0,0,0,0,0
		l0,0l0,0c0,0,0,0,0,0l0,0c0,0-0.1,0-0.1,0c0,0,0,0,0,0c-0.1,0.1-0.1,0.1-0.2,0.2c0,0.1-0.1,0.1-0.1,0.2c-0.1,0.2-0.1,0.5-0.2,0.7
		c-0.1,1-0.1,1.9-0.1,2.9c0,1,0.1,1.9,0.2,2.8c0.1,0.9,0.2,1.9,0.4,2.8c0,0.3,0.1,0.5,0.2,0.8c0,0.1,0.1,0.3,0.1,0.4
		c0,0.1,0.1,0.3,0.2,0.4c0,0.1,0.1,0.2,0.2,0.2c0,0,0.1,0,0.1,0l0,0l0,0l0,0l0,0l0,0l0,0c0,0,0,0,0,0c0.1,0,0.1-0.1,0.2-0.1
		c0.1-0.1,0.1-0.2,0.2-0.2c0-0.1,0.1-0.1,0.1-0.2c0.1-0.3,0.2-0.5,0.2-0.8c0.2-1,0.2-2.1,0.2-3.1C59.2,82.5,59.1,81.4,59,80.3z"/>
	<path class="st0" d="M63.6,50c-0.1-0.2-0.2-0.2-0.3-0.2c0.1,1,0.1,2.4,0.1,3.9c0,1.5-0.1,3-0.3,4c-0.2,1-0.5,1.6-0.7,1.6
		c-0.2,0-0.3-0.7-0.4-1.7c-0.1-1-0.1-2.4-0.1-3.9c0-1.5,0.1-3,0.3-4c0.1-0.5,0.2-0.9,0.3-1.2c0.1-0.3,0.2-0.4,0.3-0.4
		c0.1,0,0.2,0.2,0.3,0.5c0,0.1,0.1,0.3,0.1,0.5c0.1,0.2,0.2,0.5,0.3,0.7c0,0,0.1,0,0.1,0c0-0.2-0.1-0.5-0.1-0.7
		c0-0.2-0.1-0.5-0.2-0.7c0-0.1-0.1-0.1-0.1-0.2c0,0-0.1-0.1-0.2-0.1c0,0,0,0,0,0l0,0l0,0c0,0,0,0,0,0l0,0c0,0-0.1,0-0.1,0
		c0,0,0,0,0,0c-0.1,0.1-0.2,0.1-0.2,0.2c0,0.1-0.1,0.1-0.1,0.2c-0.1,0.2-0.2,0.5-0.3,0.7c-0.2,0.9-0.3,1.9-0.4,2.8
		c-0.1,1-0.1,1.9-0.1,2.9c0,1,0,1.9,0.1,2.9c0,0.3,0,0.5,0.1,0.8c0,0.1,0,0.3,0.1,0.4c0,0.1,0.1,0.3,0.1,0.4c0,0.1,0.1,0.2,0.2,0.3
		c0,0,0.1,0,0.1,0.1l0,0l0,0l0,0l0,0l0,0l0,0c0,0,0,0,0,0c0.1,0,0.2-0.1,0.2-0.1c0.1-0.1,0.1-0.1,0.2-0.2c0-0.1,0.1-0.1,0.1-0.2
		c0.1-0.3,0.2-0.5,0.3-0.8c0.3-1,0.4-2.1,0.5-3.1c0.1-1.1,0.1-2.1,0.1-3.2C63.8,51.3,63.8,50.6,63.6,50z"/>
	<path class="st0" d="M55.9,31.9c-0.1-0.7-0.1-1.3-0.4-1.9c-0.1-0.2-0.2-0.2-0.3-0.2c0.2,1,0.4,2.3,0.5,3.9c0.2,1.5,0.2,2.9,0.1,4
		c-0.1,1-0.3,1.7-0.5,1.7c-0.2,0-0.4-0.6-0.6-1.6c-0.2-1-0.4-2.3-0.5-3.9c-0.2-1.5-0.2-2.9-0.1-4c0-0.5,0.1-0.9,0.2-1.2
		c0.1-0.3,0.2-0.4,0.3-0.4c0.1,0,0.2,0.2,0.3,0.4c0,0.1,0.1,0.3,0.1,0.4c0.1,0.2,0.2,0.5,0.3,0.7c0,0,0.1,0,0.1,0
		c-0.1-0.2-0.1-0.5-0.2-0.7c0-0.1-0.1-0.2-0.1-0.4c0-0.1-0.1-0.2-0.2-0.4c0-0.1-0.1-0.1-0.2-0.2c0,0-0.1-0.1-0.2-0.1c0,0,0,0,0,0
		l0,0l0,0c0,0,0,0,0,0l0,0c0,0-0.1,0-0.1,0c0,0,0,0,0,0c-0.1,0.1-0.1,0.1-0.2,0.2c0,0.1-0.1,0.1-0.1,0.2c-0.1,0.2-0.1,0.5-0.2,0.7
		c-0.1,1-0.1,1.9-0.1,2.9c0,1,0.1,1.9,0.2,2.8c0.1,0.9,0.2,1.9,0.4,2.8c0,0.3,0.1,0.5,0.2,0.8c0,0.1,0.1,0.3,0.1,0.4
		c0,0.1,0.1,0.3,0.2,0.4c0,0.1,0.1,0.2,0.2,0.2c0,0,0.1,0,0.1,0l0,0h0l0,0l0,0h0l0,0c0,0,0,0,0,0c0.1,0,0.1-0.1,0.2-0.1
		c0.1-0.1,0.1-0.2,0.2-0.2c0-0.1,0.1-0.1,0.1-0.2c0.1-0.3,0.2-0.5,0.2-0.8c0.2-1,0.2-2.1,0.2-3.1C56.1,34,56,32.9,55.9,31.9z"/>
	<path class="st0" d="M73.2,86.3c0.1-0.7,0.2-1.3,0-1.9c-0.1-0.2-0.2-0.3-0.3-0.3c0,1-0.1,2.4-0.3,3.9c-0.2,1.5-0.5,2.9-0.8,3.9
		c-0.3,1-0.7,1.6-0.9,1.5c-0.2-0.1-0.3-0.7-0.2-1.7c0-1,0.1-2.4,0.3-3.9c0.2-1.5,0.5-2.9,0.8-3.9c0.2-0.5,0.3-0.9,0.5-1.1
		c0.2-0.3,0.3-0.4,0.4-0.4c0.1,0,0.2,0.2,0.2,0.5c0,0.1,0,0.3,0,0.5c0.1,0.2,0.1,0.5,0.2,0.7c0,0.1,0.1,0,0.1,0c0-0.2,0-0.5,0-0.7
		c0-0.1,0-0.2,0-0.4c0-0.1,0-0.2-0.1-0.4c0-0.1,0-0.1-0.1-0.2c0,0-0.1-0.1-0.1-0.1c0,0,0,0,0,0l0,0l0,0c0,0,0,0,0,0l0,0
		c0,0-0.1,0-0.1,0c0,0,0,0,0,0c-0.1,0-0.2,0.1-0.2,0.2c-0.1,0.1-0.1,0.1-0.1,0.2c-0.1,0.2-0.2,0.4-0.3,0.7c-0.4,0.9-0.6,1.8-0.7,2.8
		c-0.2,0.9-0.3,1.9-0.4,2.8c-0.1,0.9-0.2,1.9-0.3,2.9c0,0.3,0,0.5,0,0.8c0,0.1,0,0.3,0,0.4c0,0.1,0,0.3,0.1,0.4
		c0,0.1,0.1,0.2,0.2,0.3c0,0,0.1,0.1,0.1,0.1l0,0l0,0l0,0l0,0l0,0l0,0c0,0,0,0,0,0c0.1,0,0.2,0,0.2-0.1c0.1-0.1,0.1-0.1,0.2-0.2
		c0.1-0.1,0.1-0.1,0.1-0.2c0.2-0.2,0.3-0.5,0.4-0.7c0.4-1,0.6-2,0.9-3C73,88.4,73.1,87.3,73.2,86.3z"/>
	<path class="st0" d="M67.6,70.7c-0.1-0.1-0.1-0.2-0.2-0.2c-0.1-0.1-0.2-0.1-0.3-0.1c-0.1,0-0.2,0.1-0.2,0.1c0,0,0,0.1,0,0.1
		c0.4,0,0.8,1.1,0.8,2.5c0,1.4-0.4,2.5-0.8,2.5c-0.4,0-0.8-1.1-0.8-2.5c0-1,0.2-1.9,0.5-2.3c0,0,0,0,0-0.1c0-0.1,0.1-0.2,0.3-0.3
		c0,0,0-0.1,0-0.1c-0.1,0-0.2,0.1-0.3,0.1c-0.1,0.1-0.1,0.1-0.2,0.2c-0.1,0.1-0.1,0.2-0.2,0.3C66,71.2,66,71.4,66,71.7
		c-0.1,0.5-0.1,0.9-0.1,1.4c0,0.5,0,0.9,0.1,1.4c0,0.2,0.1,0.5,0.2,0.7c0,0.1,0.1,0.2,0.2,0.3c0,0.1,0.1,0.1,0.2,0.2
		c0.1,0,0.2,0.1,0.3,0.1c0.1,0,0.1,0,0.2,0c0.1,0,0.1,0,0.1-0.1c0.1-0.1,0.1-0.1,0.2-0.2c0.1-0.1,0.2-0.2,0.2-0.4
		c0.1-0.2,0.2-0.5,0.3-0.7c0.1-0.5,0.2-1,0.2-1.5c0-0.5,0-1.1-0.2-1.6C67.7,71.1,67.7,70.9,67.6,70.7z"/>
	<path class="st0" d="M58.9,180.5c0.1,0,0.1,0,0.2,0l0-0.1C59,180.5,59,180.5,58.9,180.5z"/>
	<path class="st1" d="M58.9,180.5c0.1,0,0.1-0.1,0.2-0.1l0-0.1c-0.1-0.6-0.1-1.2-0.2-1.7c0,0,0,0,0,0.1c0,0,0,0,0,0.1
		c-0.1,0.1-0.1,0.1-0.1,0.2c0,0,0,0,0,0c0,0.1-0.1,0.1-0.1,0.2c0,0,0,0,0,0c0,0.1-0.1,0.1-0.1,0.2c0,0,0,0,0,0
		c0,0.1-0.1,0.1-0.1,0.2c-0.2,0.4-0.2,0.7-0.2,0.9C58.3,180.5,58.6,180.5,58.9,180.5z"/>
	<path class="st2" d="M50.7,119.8c0.1,2.4,0.5,4.4,0.9,4.4c0.4,0,0.8-2,0.7-4.4c-0.1-2.5-0.6-4.4-1-4.4l0,0c-0.1,0-0.2,0.2-0.3,0.5
		C50.7,116.6,50.6,118.1,50.7,119.8z"/>
	<path class="st2" d="M64.4,106.9c0.6-0.8,1.2-1.6,1.5-2.3c0.3-0.6,0.5-1.1,0.3-1.2c-0.2-0.1-0.6,0.1-1.2,0.5c-0.6,0.4-1.3,1.1-2,2
		c-0.7,0.9-1.2,1.8-1.3,2.6c-0.1,0.4-0.1,0.7-0.1,1c0,0.1,0.1,0.2,0.1,0.3l0,0c0,0.1,0.1,0.1,0.2,0.1c0.1,0,0.2-0.1,0.3-0.2
		c0.1-0.2,0.3-0.4,0.5-0.7C63.2,108.4,63.8,107.7,64.4,106.9z"/>
	<path class="st2" d="M63.9,137.4c-0.2-0.1-0.6,0.2-1.2,0.7c-0.6,0.6-1.3,1.5-1.9,2.5c-0.7,1.1-1.1,2.2-1.2,3
		c-0.2,0.8-0.1,1.4,0.1,1.4c0.2,0,0.5-0.4,0.9-1l1.6-2.6l0,0c0.1-0.2,0.2-0.4,0.3-0.5c0.5-0.8,0.9-1.6,1.2-2.2
		C63.9,138.1,64,137.6,63.9,137.4z"/>
	<path class="st2" d="M54.5,150.3c-0.1,0.2-0.3,0.5-0.4,0.8c-0.2,0.7-0.4,1.8-0.5,2.9c-0.1,1.1-0.1,2.1-0.1,2.8
		c0,0.7,0.1,1.2,0.3,1.3c0.2,0.1,0.5-0.4,0.8-1.1c0.3-0.7,0.5-1.8,0.5-2.9c0.1-1.1,0.1-2.1,0-2.8c0-0.4-0.1-0.7-0.1-0.9l0,0
		c-0.1-0.2-0.1-0.3-0.3-0.4c0,0-0.1,0-0.1,0C54.7,150.1,54.6,150.2,54.5,150.3z"/>
	<path class="st2" d="M58.3,168.7c-0.4,0.4-0.8,1.1-1.1,1.9c-0.3,0.8-0.5,1.5-0.6,2.1c-0.1,0.6,0,0.9,0.2,1c0.2,0.1,0.5-0.1,0.9-0.6
		c0.3-0.5,0.7-1.1,1-1.9c0.3-0.8,0.5-1.5,0.7-2c0.1-0.3,0.1-0.5,0.1-0.7c0-0.2,0-0.3-0.1-0.4l0,0c-0.1-0.1-0.2,0-0.4,0c0,0,0,0,0,0
		C58.7,168.3,58.5,168.5,58.3,168.7z"/>
	<path class="st2" d="M72.1,165.5c-0.3,0.7-0.5,1.4-0.6,2c-0.1,0.5-0.1,0.9,0.1,1c0.2,0.1,0.5-0.1,0.9-0.5c0.4-0.4,0.8-1.1,1.1-1.9
		c0.3-0.8,0.5-1.5,0.6-2.1c0.1-0.6,0-0.9-0.2-1l0,0c-0.1,0-0.2,0-0.4,0.1C73.1,163.5,72.5,164.4,72.1,165.5z"/>
	<path class="st2" d="M73.2,149.5c0.1-0.2,0.1-0.4,0.2-0.8c0.1-0.6,0.2-1.5,0.2-2.4c0.1-1,0-1.9-0.1-2.5c-0.1-0.7-0.3-1.1-0.5-1.1
		c-0.2,0-0.4,0.4-0.6,1c-0.2,0.6-0.3,1.5-0.4,2.5c-0.1,1,0,1.9,0.2,2.6c0.1,0.3,0.2,0.6,0.4,0.8l0,0c0.1,0.2,0.3,0.2,0.4,0.2
		c0,0,0,0,0,0C73.1,149.8,73.1,149.6,73.2,149.5z"/>
	<path class="st2" d="M82,129.8c-0.2,1.9,0,3.4,0.4,3.4c0.4,0.1,0.9-1.4,1.2-3.2c0.1-0.9,0.2-1.7,0.1-2.3c0-0.6-0.1-1-0.4-1.1l0,0
		c-0.1,0-0.2,0.1-0.4,0.2c-0.1,0.1-0.2,0.4-0.4,0.6C82.3,128.1,82.1,128.9,82,129.8z"/>
	<path class="st2" d="M79.7,112.3c0,1,0.1,1.9,0.4,2.5c0.1,0.3,0.2,0.6,0.4,0.7c0.1,0.2,0.3,0.2,0.4,0.2c0.1,0,0.2-0.1,0.2-0.3
		c0.1-0.2,0.1-0.4,0.1-0.7c0.1-0.6,0.1-1.4,0.1-2.4c0-0.9-0.1-1.8-0.2-2.4c-0.1-0.6-0.3-1-0.5-1l0,0c-0.1,0-0.2,0.1-0.3,0.3
		c-0.1,0.2-0.2,0.4-0.2,0.7C79.8,110.5,79.7,111.4,79.7,112.3z"/>
	<path class="st2" d="M61.8,29c-0.2,2.1,0,3.9,0.5,4c0.4,0,1-1.7,1.1-3.8c0.1-1.1,0-2.1-0.1-2.8c-0.1-0.7-0.3-1.2-0.5-1.2
		c0,0,0,0,0,0c-0.1,0-0.2,0.1-0.3,0.4c-0.1,0.2-0.2,0.5-0.2,0.8C62,27,61.9,27.9,61.8,29z"/>
	<path class="st2" d="M72.2,51.4c-0.2-0.1-0.6,0.3-0.8,1c-0.3,0.7-0.4,1.7-0.4,2.8c0,1.1,0.1,2.1,0.1,2.7c0.1,0.7,0.2,1.1,0.4,1.2
		c0.2,0.1,0.5-0.4,0.7-1.1c0.2-0.7,0.3-1.7,0.3-2.8c0-1.1,0-2-0.1-2.7l0,0c0-0.2,0-0.4,0-0.5C72.4,51.7,72.4,51.5,72.2,51.4z"/>
	<path class="st2" d="M54.1,53.6c-0.1,0-0.2,0.2-0.3,0.4c-0.1,0.3-0.2,0.7-0.2,1.2c-0.1,1-0.1,2.4,0.1,4c0.2,1.5,0.4,2.9,0.5,3.9
		c0.2,1,0.4,1.6,0.6,1.6c0.2,0,0.4-0.6,0.5-1.7c0.1-1,0.1-2.4-0.1-4c-0.2-1.5-0.4-2.9-0.6-3.9l0,0c0-0.3-0.1-0.5-0.1-0.7
		c0-0.2-0.1-0.3-0.1-0.4C54.3,53.8,54.2,53.6,54.1,53.6z"/>
	<path class="st2" d="M57.6,76.7c-0.1,0-0.2,0.2-0.3,0.4c-0.1,0.3-0.2,0.7-0.2,1.2c-0.1,1-0.1,2.4,0.1,4c0.2,1.5,0.4,2.9,0.5,3.9
		c0.2,1,0.4,1.6,0.6,1.6c0.2,0,0.4-0.6,0.5-1.7c0.1-1,0.1-2.4-0.1-4c-0.2-1.5-0.4-2.9-0.6-3.9l0,0c0-0.3-0.1-0.5-0.1-0.7
		c0-0.2-0.1-0.3-0.1-0.4C57.8,76.8,57.7,76.7,57.6,76.7z"/>
	<path class="st2" d="M62.8,48.1c-0.1,0-0.2,0.1-0.3,0.4c-0.1,0.3-0.2,0.7-0.3,1.2c-0.2,1-0.3,2.4-0.3,4c0,1.5,0.1,2.9,0.1,3.9
		c0.1,1,0.2,1.6,0.4,1.7c0.2,0,0.5-0.6,0.7-1.6c0.2-1,0.3-2.4,0.3-4c0-1.5,0-2.9-0.1-3.9v0c0-0.3-0.1-0.5-0.1-0.7
		c0-0.2-0.1-0.3-0.1-0.5C63,48.3,62.9,48.1,62.8,48.1z"/>
	<path class="st2" d="M54.5,28.2c-0.1,0-0.2,0.2-0.3,0.4c-0.1,0.3-0.2,0.7-0.2,1.2c-0.1,1-0.1,2.4,0.1,4c0.2,1.5,0.4,2.9,0.5,3.9
		c0.2,1,0.4,1.6,0.6,1.6c0.2,0,0.4-0.6,0.5-1.7c0.1-1,0.1-2.4-0.1-4c-0.2-1.5-0.4-2.9-0.6-3.9l0,0c0-0.3-0.1-0.5-0.1-0.7
		c0-0.2-0.1-0.3-0.1-0.4C54.7,28.4,54.6,28.2,54.5,28.2z"/>
	<path class="st2" d="M72.7,82.4c-0.1,0-0.2,0.1-0.4,0.4c-0.2,0.3-0.3,0.6-0.5,1.1c-0.3,1-0.6,2.4-0.8,3.9c-0.2,1.5-0.3,2.9-0.3,3.9
		c0,1,0,1.6,0.2,1.7c0.2,0.1,0.6-0.5,0.9-1.5c0.3-1,0.6-2.4,0.8-3.9c0.2-1.5,0.3-2.9,0.3-3.9l0,0c0-0.3,0-0.5,0-0.7
		c0-0.2,0-0.3,0-0.5C72.9,82.6,72.8,82.4,72.7,82.4z"/>
	<path class="st2" d="M66.8,75.5c0.4,0,0.8-1.1,0.8-2.5c0-1.4-0.4-2.5-0.8-2.5l0,0c-0.1,0-0.2,0.1-0.3,0.2C66.2,71.1,66,72,66,73.1
		C66,74.4,66.3,75.5,66.8,75.5z"/>
	<path class="st2" d="M113.3,118.8c-0.1-0.1-0.2-0.2-0.4-0.2c-0.3,0-0.7,0.1-1.2,0.3c-0.5,0.2-1.1,0.5-1.7,0.8
		c1.6-4,3.1-8.4,4.2-13.1c0.4-1.5,0.7-3.1,1.1-4.8c0.5-0.6,1-1.3,1.5-2c0.3-0.4,2.8-4.2,2-4.7c-0.1,0-0.1-0.1-0.2-0.1
		c-0.5,0-1.6,1.2-2.6,2.4c0.1-0.6,0.2-1.2,0.3-1.8c0.6-3.8,1.1-7.8,1.6-11.5l0.7-5.9l0.4-3l0.2-1.1l0.3-1.9
		c0.6-3.4,1.2-7.8,1.6-12.4c0.1-1.7,0.2-3.3,0.3-4.9c0.5-0.7,0.8-1.3,1.1-1.8c0.5-1,0.6-1.6,0.3-1.7c0,0-0.1,0-0.2,0
		c-0.2,0-0.5,0.1-1.3,0.9c0-2-0.2-3.7-0.4-5.4c-0.4-2.6-0.9-4.7-1.7-6.5c-0.5-1.2-1.1-2.2-1.8-3c-0.8-1-1.7-1.8-2.7-2.4
		c-1-0.6-2.2-1-3.5-1.2c-0.6-0.1-1.2-0.1-1.8-0.1c-0.3,0-0.6,0-0.9,0c-0.1,0-0.3,0-0.4,0l-0.5,0.1c-0.2,0-0.4,0.1-0.6,0.1
		c0-0.2,0-0.4,0-0.6c0-0.5-0.2-1.5-0.7-1.5c-0.3,0-0.5,0.5-0.8,1.4c-0.1,0.4-0.2,0.9-0.3,1.4c-0.4,0.2-0.8,0.4-1.1,0.6
		c-1,0.6-1.8,1.5-2.7,2.5c-0.7,0.9-1.3,1.8-2,3c-0.5,1-1,2-1.5,3.2c-0.8,1.9-1.5,4.1-2.2,6.7c0,0,0,0.1,0,0.1c0-0.2-0.1-0.4-0.1-0.6
		c-0.1-0.5-0.3-1-0.5-1.5c-0.3-0.7-0.7-1.2-1-1.2c0,0-0.1,0-0.1,0c-0.3,0.1-0.3,0.6-0.2,1.5l0.1,1.6c0,0.4,0.1,1,0.1,1.5
		c0.1,0.9,0.3,2.2,0.6,3.1c-0.6,2.7-1.1,5.6-1.7,9.2c-0.6,3.9-1.2,8-1.7,11.9c-0.1,0.7-0.2,1.5-0.3,2.2c-0.1,0.6-0.2,1.1-0.2,1.7
		c-0.3-1-0.6-1.8-0.9-2.5c-0.2-0.4-0.4-0.7-0.6-0.9c-0.1-0.1-0.2-0.2-0.3-0.3c0,0-0.1-0.1-0.2-0.1c0,0-0.1,0-0.1,0
		c0,0-0.1,0.1-0.1,0.1l0,0.1l0,0c0,0,0,0,0,0.1c0,0.1,0,0.2-0.1,0.3c0,0.2,0,0.6,0,1c0.1,0.9,0.3,2.1,0.6,3.2c0.3,1.2,0.7,2.2,1,3
		c-0.3,2-0.6,3.8-0.9,5.4c-0.4,2.2-0.8,3.9-1.2,5.4c-0.3,1-0.6,1.8-0.9,2.5c-0.2,0.4-0.4,0.8-0.6,1.2c-0.2,0.4-0.5,0.7-0.7,1
		c-0.1,0.1-0.1,0.1-0.2,0.2l-0.2,0.2c-0.2,0.1-0.3,0.3-0.5,0.4c-0.3,0.2-0.7,0.4-1,0.5c-0.3,0.1-0.5,0.1-0.7,0
		c-0.2-0.1-0.5-0.3-0.7-0.6c-0.2-0.3-0.4-0.6-0.6-1c-0.1-0.4-0.3-0.7-0.4-1.2c-0.2-0.7-0.4-1.6-0.5-2.6c-0.2-1.5-0.4-3.2-0.5-5.3
		c-0.1-1.6-0.1-3.3-0.1-5.4c0-0.4,0-0.7,0-1.1c0-0.5,0-1.1,0-1.6c0-0.8,0-1.7,0-2.6l0.1-5.4c0.1-3.6,0.1-6.9,0.1-10
		c0.7-1.4,1.2-2.6,1.4-3.1c0.4-1.1,0.5-1.5,0.2-1.7c0,0-0.1-0.1-0.2-0.1c-0.4,0-1,0.7-1.3,1.1c-0.1,0.1-0.1,0.2-0.2,0.2
		c-0.1-6.4-0.3-12-0.6-17.3c-0.2-3.6-0.5-6.8-0.9-9.8c-0.1-0.9-0.2-1.8-0.4-2.7c0.6-1.3,1.2-2.9,0.7-3.2c0,0-0.1,0-0.1,0
		c-0.1,0-0.4,0.1-1,0.8c-0.3-1.5-0.5-2.9-0.8-4.3c-0.4-1.7-0.8-3.2-1.2-4.6c-0.5-1.7-1.1-3.1-1.7-4.4c-0.6-1.3-1.2-2.3-1.9-3.2
		c0.8-2.4,1-3.8,0.5-3.9c0,0-0.1,0-0.1,0c-0.6,0-1.4,1.7-1.8,2.5c-0.4-0.4-0.8-0.7-1.3-0.9c-0.7-0.4-1.6-0.7-2.4-0.8
		c-1.6-0.2-3.2-0.1-4.6,0.1c-1.5,0.3-3,0.8-4.3,1.6c-1,0.6-2,1.3-2.8,2.2c-0.2-0.9-0.3-1.8-0.5-2.4c-0.1-0.4-0.2-0.7-0.3-0.9
		c-0.1-0.2-0.2-0.4-0.4-0.4c-0.2,0-0.3,0.1-0.4,0.4c-0.1,0.2-0.2,0.6-0.2,1c-0.1,0.9,0,2,0.2,3.2c0.1,0.3,0.1,0.7,0.2,1
		c-0.5,0.7-1,1.5-1.5,2.3c-1.2,2.2-2.1,4.6-3,7.6c-0.6,2.3-1.1,4.8-1.5,7.6c-0.2,1.2-0.3,2.4-0.4,3.7c-0.1,1.1-0.2,2.1-0.3,3.1
		c-0.1-0.1-0.1-0.2-0.2-0.3c-0.5-0.8-0.9-1.1-1.2-1c-0.3,0.1-0.3,0.6-0.1,1.6c0.2,0.8,0.5,1.9,0.9,3c0.1,0.3,0.2,0.5,0.3,0.8
		c-0.1,1.3-0.1,2.4-0.2,3.5c-0.2,3.9-0.1,8,0.2,12.8c0.1,1.1,0.2,2.3,0.3,3.5c-0.2-0.5-0.5-0.9-0.7-1.2c-0.7-1.2-1-1.2-1.1-1.2
		c0,0-0.1,0-0.1,0c-0.2,0.1-0.4,0.3-0.1,1.7c0.2,1,0.6,2.1,1.1,3.3c0.4,0.9,0.9,1.8,1.3,2.5c0.1,0.8,0.2,1.6,0.3,2.4
		c0.4,3.7,0.8,7.1,1,9.3c0.1,1.1,0.3,2.1,0.4,3.1c0,0,0-0.1,0-0.1c-0.5-1-1-1.8-1.6-2.3c-0.3-0.3-0.5-0.5-0.7-0.6
		c-0.2-0.1-0.4-0.2-0.6-0.1c-0.2,0.1-0.2,0.4-0.1,0.6c0,0.2,0.1,0.5,0.2,0.8c0.3,0.7,0.7,1.6,1.1,2.4c0.5,1,1,1.8,1.5,2.3
		c0.2,0.3,0.5,0.5,0.7,0.6c0.3,2.1,0.5,4.1,0.8,6c0,0.2,0.1,0.5,0.1,0.7c-0.6,0.2-0.8,2.5-0.8,3.8c-0.3,0.2-0.7,0.5-1,0.8
		c-1.3,1.1-2.6,2.4-3.8,3.9c-0.3-0.9-0.6-1.7-0.9-2.4c-0.3-0.5-0.6-0.9-0.9-1.2c-0.2-0.1-0.4-0.3-0.6-0.3c-0.1,0-0.1,0-0.2,0.1
		c-0.2,0.1-0.1,0.4,0,0.7c0,0.1,0.1,0.3,0.1,0.4c0.1,0.2,0.1,0.5,0.2,0.8c0.2,0.9,0.5,2.1,0.8,3.5l0.1,0.3c-1,1.5-1.9,3-2.8,4.8
		c-0.8,1.6-1.6,3.4-2.3,5.2c-1.2-0.8-2.2-1.8-3.1-2.9c-1-1.4-1.9-3-2.6-4.8c-0.6-1.6-1.1-3.5-1.4-5.5c-0.3-1.8-0.4-3.7-0.5-5.8
		c-0.1-3.7,0.3-7.6,1-11.8c0.2-1,0.4-2,0.6-3l0.2-0.9l0.1-0.6c0.1-0.5,0.2-1,0.2-1.6c0.3-2.2,0.4-4.3,0.3-6.3c0-1.6-0.2-3-0.4-4.3
		c-0.3-1.6-0.7-3-1.3-4.2c-0.1-0.3-0.3-0.6-0.4-0.9c0.2-0.5,0.3-1,0.4-1.5c0.1-0.3,0.1-0.6,0.1-0.8c0-0.1,0-0.1,0-0.2c0,0,0,0,0-0.1
		c0,0,0-0.1,0.1-0.1c0-0.1,0-0.1,0-0.2c0-0.1-0.1-0.1-0.2-0.2c-0.1,0-0.2,0-0.3,0l0,0c-0.1,0-0.1,0.1-0.2,0.1
		c-0.2,0.1-0.4,0.4-0.7,0.7c-0.1,0.1-0.1,0.2-0.2,0.3c-0.3-0.4-0.7-0.8-1.1-1.1c-0.6-0.5-1.3-0.9-2-1.2c-0.7-0.3-1.4-0.5-2.2-0.6
		C25,56.1,24.5,56,24.1,56c-1,0-1.9,0.1-3,0.4l-0.3,0.1c-0.1,0-0.2,0-0.3,0.1c-0.2,0.1-0.4,0.1-0.5,0.2c-0.3,0.1-0.7,0.3-1,0.5
		c-0.6,0.3-1.2,0.8-1.8,1.3c-0.7,0.6-1.3,1.3-1.9,2.1c0-2.1-0.3-3.9-0.8-4.3c-0.1-0.1-0.2-0.1-0.3-0.1h0c-0.7,0.1-0.8,2.7-0.9,4.9
		c0,0.9,0,1.8,0,2.6c-0.3,0.6-0.6,1.2-0.9,1.9c-0.9,2.1-1.6,4.4-2.3,7.2C10,72.3,9.8,72,9.7,71.8c-0.1-0.1-0.3-0.3-0.5-0.3
		c0,0-0.1,0-0.1,0c-0.2,0.1-0.2,0.3-0.2,0.6c0,0.2,0,0.6,0,1.1c0,0.6,0.1,1.9,0.4,3.4l0,0.1c-0.2,1.3-0.5,2.7-0.7,4.2
		C8.3,83.4,8,86,7.9,88.4c-0.1,2.1-0.1,4.2-0.1,6.5c-0.2,0-0.3,0.1-0.4,0.2c-0.1,0.1,0,0.3,0,0.5l0.2,0.9c0,0.2,0.1,0.4,0.2,0.6
		c0.2,4.8,0.7,9.3,1.6,13.4c0.5,2.5,1.1,4.7,1.9,6.8c0.9,2.4,1.8,4.4,2.9,6.2c1.3,2.1,2.9,3.8,4.5,5.1c0.9,0.7,1.9,1.2,3,1.6
		c1,0.4,2.1,0.7,3.2,0.8c2,0.2,4.1,0.1,6.3-0.5c1.4-0.4,2.8-0.9,4.3-1.6c-0.6,3.3-1.1,6.6-1.4,10c-0.2-0.3-0.4-0.5-0.6-0.7
		c-0.1-0.1-0.3-0.2-0.4-0.2c-0.2,0-0.3,0-0.3,0.1l0,0c-0.2,0.2-0.1,0.5,0.1,1c0.1,0.2,0.1,0.4,0.2,0.7c0.2,0.7,0.4,1.7,0.6,2.9
		l0.2,0.9c-0.2,2.4-0.2,4.9-0.3,7.3c0,2.2,0,4.4,0.1,6.6c-0.1-0.1-0.2-0.3-0.2-0.4c-0.2-0.3-0.4-0.6-0.5-0.8
		c-0.1-0.2-0.2-0.3-0.3-0.3l0,0c-0.1,0-0.1,0-0.2,0l0,0c-0.1,0-0.1,0.1-0.2,0.1c-0.1,0.1-0.1,0.3-0.2,0.4c0,0.3,0,0.7,0.1,1.1
		c0.2,0.8,0.6,1.9,1.1,3c0.2,0.4,0.4,0.8,0.6,1.2c0.1,2.2,0.3,4.5,0.6,6.9c0.1,1.4,0.3,2.7,0.5,4.1c-0.2-0.3-0.4-0.6-0.6-0.9
		c-0.2-0.3-0.4-0.5-0.5-0.7c-0.2-0.2-0.4-0.3-0.5-0.2c-0.2,0.1-0.3,0.2-0.3,0.5c0,0.2,0,0.5,0.1,0.9c0.1,0.7,0.4,1.6,0.9,2.6
		c0.4,0.8,0.8,1.7,1.2,2.3c0.2,0.3,0.3,0.4,0.4,0.6c0.1,0.7,0.2,1.3,0.3,2c0,0.2,0.1,0.4,0.1,0.6c0,0-0.1,0-0.1,0
		c-0.7,0-1.3,0-1.9,0c-3.2,0-5.9-0.1-7.7-0.1c-1.8,0-2.8,0.1-2.8,0.2c0,0,0,0,0,0c-0.1,0-0.2,0-0.3,0c0.1,2.5,0.2,5.3,0.4,8.4
		c0.3,6.2,0.7,13.6,1.3,22.1c0.6,8.5,1.3,18,2.3,28.4c0.5,5.2,1.1,10.6,1.9,16.2c0.4,2.8,0.8,5.6,1.3,8.5c0.5,2.6,1,5.3,1.7,8
		c0,0,0,0.1,0,0.2c0.1,0.2,0.1,0.4,0.2,0.6l0,0c0.1,0.2,0.2,0.4,0.4,0.5c0.3,0.1,0.5,0.3,0.8,0.4c0.1,0.1,0.2,0.1,0.4,0.2
		c1.2,0.9,3.2,1.8,5.7,2.6c5.1,1.6,12.5,2.6,20.6,2.5c4.1-0.1,7.9-0.4,11.4-0.9c3.5-0.5,6.6-1.3,9.1-2.1c2.5-0.8,4.5-1.7,5.8-2.5
		c0.5-0.3,0.9-0.6,1.2-0.8c0.1,0,0.2-0.1,0.3-0.1c0.1-0.1,0.3-0.2,0.3-0.4c0,0,0.1-0.1,0.1-0.1h0l0,0c0.2-0.9,0.4-1.9,0.6-2.8
		c0.5-2.2,0.8-4.4,1.1-6.6c0.3-2.2,0.6-4.4,0.9-6.5c0.5-4.3,0.9-8.7,1.3-12.9c0.7-8.5,1.2-16.8,1.5-24.9c0.4-8.1,0.6-15.9,0.8-23.4
		c0.1-4.9,0.3-9.8,0.3-14.4v0h0c0-0.3-4-0.3-10.5-0.2c-1.1,0-2.2,0-3.5,0.1c0-1.2,0-2.8,0-4.5c0.5-0.7,1-1.5,1.3-2.1
		c0.5-0.9,0.6-1.3,0.4-1.5c-0.1-0.1-0.1-0.1-0.2-0.1c-0.3,0-0.8,0.3-1.3,0.7c-0.1,0-0.1,0.1-0.2,0.1c0,0,0,0-0.1,0.1v-0.1
		c0-4.3,0-10.1-0.1-17.1c0.3-0.3,0.6-0.8,1-1.2c1.3-1.8,1.8-2.9,1.4-3.3c-0.2-0.2-0.6-0.1-1.2,0.4c-0.4,0.3-0.7,0.6-1.1,1.1
		c0-2.3-0.1-4.3-0.1-6.2c0.4,0.1,0.8,0.1,1.2,0.2c0.6,0,1.3-0.1,2-0.2c1.2-0.3,2.4-0.7,3.9-1.4c2.3-1.1,4.6-2.7,7.1-4.7
		c2.3-1.9,4.5-4.1,6.4-6.4c2.1-2.5,4-5.2,5.5-8c0.6-1.1,1.2-2.2,1.7-3.4c0.4-0.2,0.7-0.5,1.1-0.7c1-0.7,2-1.4,2.6-1.9
		C113.1,119.4,113.4,119,113.3,118.8z M106,122.5c-1,0.9-0.9,1.3-0.8,1.4c0.1,0.2,0.5,0.2,1.1-0.1c-0.3,0.6-0.5,1.1-0.8,1.6
		c-1.4,2.7-3.2,5.3-5.3,7.8c-1.9,2.3-4,4.4-6.2,6.3c-2.3,2-4.6,3.5-6.8,4.6c-1.3,0.6-2.5,1.1-3.6,1.3c-0.6,0.1-1.2,0.2-1.7,0.2h-0.1
		c-0.6,0-1.1-0.1-1.6-0.3c-0.1,0-0.2-0.1-0.3-0.1h0c-0.2,0-0.3,0.1-0.4,0.2c-0.1,0.1-0.2,0.3-0.2,0.4c0.1,3,0.2,5.8,0.3,8.5
		c-0.3,0.5-0.5,1-0.6,1.4c-0.1,0.3-0.1,0.6-0.1,0.8c0,0.3,0.1,0.4,0.2,0.5c0.1,0.1,0.3,0,0.5-0.1c0,0,0,0,0.1,0
		c0.2,6.3,0.3,11.9,0.4,16.3l0,0.6c-0.4,0.4-0.8,0.9-1.2,1.5c-0.6,0.9-1.2,1.9-1.7,2.7c-0.2,0.4-0.3,0.7-0.4,0.9
		c-0.1,0.2-0.1,0.5,0,0.6c0.1,0.1,0.3,0.1,0.6,0c0.2-0.1,0.5-0.3,0.8-0.6c0.5-0.5,1.2-1.2,1.8-2c0,1.4,0.1,2.6,0.1,3.6
		c-1.4,0-3,0-4.6,0.1c-0.2,0-0.4,0-0.7,0l-0.1,0l0,0c-1.2,0-2.4,0-3.6,0c-1.5,0-2.9,0-4.4,0c0.2-0.6,0.3-1.5,0.3-2.3
		c0.1-0.9,0-1.8-0.1-2.5c-0.1-0.5-0.3-1.1-0.7-1.1c-0.3,0-0.5,0.4-0.7,1.1c-0.2,0.7-0.3,1.5-0.3,2.4c0,0.9,0,1.7,0.1,2.4
		c-1.9,0-3.8,0-5.7,0c0.1-0.2,0.1-0.5,0.2-0.7c0.3-0.2,0.5-0.5,0.8-0.7c0.7-0.7,1.2-1.3,1.5-1.9c0.4-0.6,0.4-1.1,0.2-1.3
		c-0.2-0.2-0.6-0.1-1.2,0.3c-0.1,0.1-0.2,0.1-0.2,0.2c0.1-0.5,0.3-1,0.4-1.6c1.5-5.8,3-12.1,4.4-18.8c0.6-0.7,1.1-1.4,1.4-2
		c0.2-0.4,0.5-1.2,0.2-1.5c-0.2-0.1-0.5,0-0.9,0.3c0.2-1.2,0.5-2.4,0.7-3.5c1-5.5,1.8-10.6,2.5-15.7c0.1-0.1,0.2-0.3,0.4-0.4
		c0.5-0.6,1.1-1.3,1.5-1.8c0.4-0.6,0.5-1.1,0.3-1.3c-0.2-0.2-0.6-0.1-1.3,0.3c-0.2,0.1-0.3,0.2-0.5,0.3c0.2-1.6,0.4-3,0.5-4.5
		c0.1-0.9,0.2-1.8,0.3-2.6l0.2-2l0-0.7c0-0.3,0-0.7,0-1c0.2-0.3,0.5-0.5,0.6-0.7c0.9-1,0.8-1.4,0.7-1.5c-0.1-0.1-0.2-0.1-0.3-0.1
		c-0.2,0-0.5,0.1-1,0.4c0-0.8,0-1.7,0-2.5c0-2-0.2-3.9-0.4-5.7c-0.3-2.1-0.6-4-1.1-5.8c-0.3-1-0.6-2-1-2.9c-0.4-1-0.9-1.9-1.5-2.7
		c-0.7-0.9-1.4-1.7-2.2-2.4c-0.4-0.3-0.9-0.6-1.4-0.9c-0.5-0.3-1.1-0.5-1.6-0.6c-1.1-0.3-2.2-0.4-3.2-0.4l-0.1,0
		c-1.1,0-2.1,0.1-3.2,0.4c-1.1,0.3-2.1,0.7-3.1,1.2c-0.1-0.8-0.2-1.6-0.3-2c0-0.4-0.1-0.9-0.1-1.4L51.2,86c0-0.1,0-0.3,0-0.5
		l-0.6-6.2c-0.3-2.8-0.6-5.9-0.9-9.3c0-0.3-0.1-0.6-0.1-0.9c0.2,0.2,0.4,0.2,0.6,0.1c0.3-0.2,0.2-0.6-0.1-1.7
		c-0.2-0.5-0.4-1.2-0.7-1.9c-0.2-2.4-0.4-4.6-0.5-6.6c-0.3-4.8-0.3-8.8-0.1-12.6c0-0.3,0-0.7,0.1-1c0.4,0.7,0.7,0.8,0.8,0.8
		c0,0,0.1,0,0.1,0c0.1,0,0.2-0.1,0.2-0.2c0.3-0.5-0.1-2.4-0.8-4.4l0-0.1c0.1-0.6,0.1-1.3,0.2-1.9l0-0.4c0.1-1,0.2-2.1,0.3-3.1
		c0.1-1.3,0.3-2.5,0.5-3.6c0.4-2.8,0.9-5.2,1.5-7.4c0.8-2.9,1.7-5.2,2.9-7.3c0.2-0.4,0.4-0.8,0.7-1.1c0,0,0,0.1,0,0.1
		c0.4,1.1,0.7,1.2,0.9,1.2c0,0,0,0,0,0c0.1,0,0.5-0.1,0.5-1.5c0-0.4,0-1-0.1-1.6c0.1-0.1,0.2-0.2,0.3-0.3c0.9-1,2-1.9,3-2.5
		c1.1-0.7,2.4-1.1,3.8-1.4c1.3-0.2,2.7-0.3,4.1-0.1c0.6,0.1,1.2,0.3,1.8,0.6c0.5,0.3,0.9,0.6,1.4,1.1c-0.1,0.1-0.1,0.3-0.2,0.4
		C70,13.8,69.7,15,69.6,16c-0.1,0.6-0.2,1.7,0.3,1.7c0,0,0,0,0.1,0c0.3,0,0.5-0.4,1-1.3c0.3-0.7,0.7-1.6,1.1-2.6
		c0.4,0.6,0.7,1.2,1.1,2c0.6,1.2,1.1,2.6,1.6,4.2c0.4,1.4,0.8,2.8,1.1,4.4c0.4,1.8,0.8,3.8,1.1,6c-0.3,0.5-0.6,0.9-0.8,1.4
		c-0.6,1.1-2.5,4.6-1.8,5.1c0,0,0.1,0,0.1,0c0.6,0,1.8-1.7,2.9-3.5c0,0.1,0,0.2,0,0.3c0.4,3,0.6,6.2,0.9,9.7
		c0.4,6,0.6,12.6,0.6,20.2c-0.6,1.2-1.1,2.3-1.4,3.1c-0.4,0.9-0.6,1.4-0.3,1.7c0,0,0.1,0.1,0.2,0.1c0.3,0,0.8-0.4,1.3-1
		c0.1-0.1,0.1-0.1,0.2-0.2c0,2.2,0,4.5-0.1,6.9l-0.1,5.5c0,0.8,0,1.7,0,2.5c0,0.5,0,1.1,0,1.6c0,0.4,0,0.7,0,1.1
		c0,2.1,0,3.8,0.1,5.5c0.1,2.2,0.2,3.9,0.5,5.5c0.2,1.1,0.4,2,0.6,2.8c0.2,0.5,0.3,1,0.5,1.4c0.2,0.6,0.5,1,0.8,1.4
		c0.4,0.6,0.9,1,1.4,1.2c0.3,0.1,0.7,0.2,1,0.2c0.3,0,0.6,0,1-0.1c0.5-0.1,1-0.4,1.5-0.7c0.2-0.1,0.4-0.3,0.6-0.5l0.3-0.3
		c0.1-0.1,0.2-0.2,0.3-0.3c0.3-0.4,0.6-0.8,0.9-1.3c0.2-0.4,0.4-0.8,0.7-1.4c0.3-0.8,0.6-1.7,1-2.8c0.6-2,1-4,1.3-5.6
		c0.7-3.8,1.2-7.6,1.8-11.3c0.1-0.8,0.2-1.5,0.3-2.3c0.5-3.9,1.1-7.9,1.7-11.8c0.6-3.8,1.5-8.8,2.8-13.6c0.7-2.5,1.4-4.6,2.1-6.4
		c0.5-1.1,0.9-2.1,1.4-3c0.6-1,1.2-1.9,1.8-2.7c0.6-0.8,1.3-1.4,1.9-1.9c-0.1,1-0.2,1.9-0.1,2.6c0,0.4,0.1,0.8,0.2,1
		c0.1,0.3,0.3,0.5,0.4,0.5c0.2,0,0.4-0.3,0.4-0.4c0.1-0.2,0.2-0.5,0.3-1c0.2-0.7,0.4-1.8,0.6-3.1c0-0.2,0.1-0.5,0.1-0.7
		c0.3-0.1,0.7-0.2,1-0.2c1.1-0.1,2.1-0.2,3.1,0c1,0.1,2,0.5,2.8,0.9c0.8,0.5,1.6,1.1,2.2,1.9c0.6,0.7,1.1,1.6,1.5,2.6
		c0.7,1.7,1.2,3.7,1.6,6c0.3,1.9,0.4,4,0.4,6.3c0,0.3,0,0.6,0,0.9c-0.2,0.3-0.4,0.5-0.6,0.8c-0.9,1.1-1.6,2.2-2,3.1
		c-0.2,0.4-0.3,0.8-0.4,1.1c-0.1,0.3,0,0.6,0.1,0.7c0.1,0.1,0.3,0,0.6-0.2c0.2-0.2,0.5-0.4,0.8-0.8c0.4-0.4,0.8-1,1.3-1.5
		c0,0.7-0.1,1.5-0.1,2.2c-0.3,4.5-1,8.9-1.5,12.2l-0.2,1.5l-0.1,0.4l0,0.2l-0.2,1.9l-0.3,2.1l-0.7,5.9c-0.4,3.7-0.9,7.6-1.5,11.4
		c-0.3,2-0.6,3.9-1,5.7c-1,2-0.7,2.2-0.6,2.3c0,0,0.1,0,0.1,0c-0.2,1-0.4,1.9-0.6,2.8c-0.8,3.6-1.8,7-3,10.1
		c-0.6,1.7-1.2,3.3-1.9,4.8C107,121.6,106.5,122,106,122.5z M72.6,236.7c-0.5,8.1-0.9,16.5-0.9,20.9c0,2.6,0,5.3,0,7.8
		c0,1.7,0,3.5,0,5.2c0,0.4,0,0.7,0,1.1c0,1.5,0,2.9-0.3,4.3c-0.1,0-0.1,0-0.1,0c-1.4,0.2-2.8,0.3-4.3,0.4c0.4-9.9,0.7-19.9,0.9-29.6
		c0.1-5.9,0.3-12,0.5-18c0.3-9.6,1.9-33.7,3.7-46.4c1,0,2-0.1,2.9-0.1c-0.5,7.9-1.4,24.4-1.5,35.4C73.5,221.8,73.1,229,72.6,236.7z
		 M58.1,180.5c-3.8,0-7.5,0-11,0l0,0c0.1-0.1,0.1-0.3,0.2-0.4c0,0,0,0,0,0c0-0.1,0-0.1,0.1-0.2c0,0,0,0,0,0c0-0.1,0-0.1,0.1-0.2
		c0,0,0,0,0,0c0-0.1,0-0.1,0.1-0.2c0,0,0,0,0,0c0-0.1,0-0.1,0.1-0.2c0,0,0,0,0,0c0-0.1,0-0.1,0.1-0.2c0,0,0,0,0,0c0-0.1,0-0.1,0-0.2
		c0,0,0,0,0,0c0-0.1,0-0.1,0-0.2c0,0,0,0,0-0.1c0-0.1,0-0.1,0-0.2c0,0,0,0,0-0.1c0-0.1,0-0.1,0-0.2c0,0,0-0.1,0-0.1
		c0-0.1,0-0.1,0-0.2c0,0,0-0.1,0-0.1c0-0.1,0-0.1,0-0.2c0,0,0-0.1,0-0.1c0,0,0-0.1,0-0.1c0-0.1,0-0.2,0-0.3c0.2-1.1,0.2-2.2,0.1-3
		c-0.1-0.8-0.4-1.3-0.6-1.2c-0.2,0-0.4,0.5-0.5,1.2c-0.2,0.7-0.4,1.7-0.5,2.8c0,0.1,0,0.2,0,0.3c0,0,0,0.1,0,0.1c0,0.1,0,0.1,0,0.2
		c0,0,0,0.1,0,0.1c0,0.1,0,0.1,0,0.1c0,0,0,0.1,0,0.1c0,0,0,0.1,0,0.1c0,0.1,0,0.1,0,0.2c0,0,0,0.1,0,0.1c0,0.1,0,0.1,0,0.2
		c0,0,0,0,0,0.1c0,0.1,0,0.1,0,0.2c0,0,0,0,0,0.1c0,0.1,0,0.1,0,0.2c0,0,0,0,0,0c0,0.1,0,0.1,0,0.2c0,0,0,0,0,0c0,0.1,0,0.1,0,0.2
		c0,0,0,0,0,0c0,0.1,0,0.1,0,0.2c0,0,0,0,0,0c0,0.1,0,0.1,0,0.2c0,0,0,0,0,0c0,0.1,0,0.1,0,0.2c0,0,0,0,0,0c0,0.1,0,0.1,0,0.2
		c0,0,0,0,0,0c0,0.1,0,0.1,0,0.2c0,0,0,0,0,0c0,0,0,0.1,0,0.1c0,0,0,0,0,0c-1.2,0-2.3,0-3.5,0l0-0.1l-1.5,0c-1.4,0-2.8,0-4.2,0
		c-0.2,0-0.3,0-0.5,0l-0.1-1c0-0.4-0.1-0.8-0.2-1.3c0.3-0.3,0.2-1,0.2-1.3c-0.1-0.5-0.3-1.1-0.5-1.8c-0.2-2.2-0.4-4.3-0.6-6.4
		c-0.1-1.7-0.2-3.4-0.3-5c0.4,0.5,0.7,0.7,0.9,0.7c0,0,0.1,0,0.1,0c0.4-0.1,0.2-1.2,0.1-1.6c-0.2-0.8-0.6-1.8-1.2-2.9l-0.1-0.1
		c-0.1-3-0.1-5.9,0-8.8c0-1.1,0.1-2.2,0.1-3.4c0.2,0.5,0.5,1,0.8,1c0,0,0.1,0,0.1,0c0.3-0.1,0.3-0.6,0.2-1.8
		c-0.1-1.4-0.2-2.6-0.5-3.8c-0.1-0.5-0.2-1-0.3-1.5c0.4-4.7,1.1-9.3,2-13.8c0-0.2,0-0.3-0.1-0.5c-0.2-0.4-0.6-0.5-1-0.3
		c-1.9,0.9-3.6,1.6-5.3,2.1c-2,0.5-4,0.7-5.8,0.5c-1-0.1-1.9-0.4-2.8-0.7c-0.9-0.4-1.8-0.9-2.6-1.5c-1.5-1.1-2.9-2.7-4.1-4.6
		c-1-1.7-1.9-3.6-2.7-5.9c-0.7-2-1.3-4.2-1.8-6.6c-0.5-2.2-0.8-4.6-1.1-7.1c0.2,0.2,0.4,0.4,0.6,0.4c0,0,0.1,0,0.1,0
		c0.3-0.1,0.3-0.5,0.2-1.5c-0.1-0.5-0.2-1.7-0.7-3.1c-0.2-0.7-0.4-1.3-0.7-1.8c0-0.4,0-0.7,0-1.1c-0.1-2.6,0-5,0.1-7.4
		c0.1-2.4,0.4-4.9,0.8-7.5c0-0.2,0.1-0.4,0.1-0.5c0.2,0.4,0.5,0.8,0.8,0.8c0,0,0.1,0,0.1,0c0.3-0.1,0.3-0.6,0.2-1.7
		c-0.1-0.9-0.2-2-0.4-3.1c0.2-1,0.4-2,0.6-3c0.7-2.8,1.5-5.2,2.3-7.4c0.6-1.3,1.1-2.4,1.8-3.4c0.8-1.2,1.5-2.1,2.4-2.9
		c0.5-0.4,1-0.8,1.5-1c0.3-0.1,0.5-0.3,0.8-0.4c0.1-0.1,0.3-0.1,0.4-0.1c0.1,0,0.1,0,0.2-0.1l0.2-0.1c1.4-0.3,2.6-0.4,3.7-0.2
		c1.2,0.2,2.4,0.6,3.3,1.4c0.5,0.4,1,0.9,1.4,1.6c0,0.1-0.1,0.2-0.1,0.2c-0.3,0.9-0.6,1.9-0.7,2.6c-0.1,0.8-0.1,1.2,0.2,1.4
		c0,0,0.1,0,0.1,0c0.4,0,0.8-0.6,1-0.9c0.2-0.3,0.4-0.7,0.6-1.1c0.3,0.9,0.6,1.8,0.8,2.9c0.2,1.2,0.4,2.6,0.4,4c0.1,1.9,0,3.9-0.3,6
		c-0.1,0.5-0.1,1-0.2,1.5l-0.1,0.4L31.3,79c-0.2,1-0.4,2-0.6,3c-0.5,3.2-0.9,6.2-1,9.1c0,0,0,0,0,0c-0.5,0.6-1,1.5-1.4,2.4
		c-0.7,1.6-1.1,3.3-0.8,3.8c0,0.1,0.1,0.2,0.2,0.2c0,0,0.1,0,0.1,0c0.6,0,1.4-1.5,2-2.7c0.1,1.9,0.2,3.6,0.5,5.3
		c0.3,2.2,0.8,4.1,1.5,5.8c0.7,2,1.7,3.8,2.9,5.3c1.2,1.6,2.8,3,4.5,4c0,0,0.1,0,0.1,0.1c0.1,0,0.2,0.1,0.3,0.1
		c0.4,0,0.7-0.2,0.9-0.6c0.8-2.2,1.7-4.2,2.6-6.1c0.6-1.1,1.1-2.2,1.7-3.1c0.2,0.9,0.4,1.6,0.6,2.2c0.6,1.8,0.9,1.8,1,1.8
		c0,0,0,0,0,0c0.2,0,0.4-0.3,0.4-2c0-0.7-0.1-2.2-0.5-4.1l0,0c0-0.1,0.1-0.1,0.1-0.2c1.3-1.8,2.8-3.4,4.2-4.6c0,0,0,0,0,0
		c0.1,0.8,0.4,2.5,1,2.5l0,0c0.7,0,0.8-2.5,0.8-3.7c1.1-0.7,2.3-1.2,3.5-1.5c1.8-0.5,3.8-0.5,5.7,0c0.4,0.1,2.1,0.9,2.4,1.2
		c0.7,0.5,1.3,1.2,1.9,2c0.9,1.3,1.7,3,2.3,5.1c0.5,1.6,0.8,3.5,1.1,5.5c0.2,1.7,0.3,3.5,0.4,5.5c0,1.1,0,2.2,0,3.5
		c-0.5,0.4-1,0.8-1.5,1.2c-0.9,0.8-1.8,1.7-2.3,2.5c-0.4,0.6-0.8,1.3-0.5,1.6c0.1,0.1,0.1,0.1,0.2,0.1c0.2,0,0.5-0.1,1.3-0.7
		c0.7-0.5,1.6-1.2,2.6-2.1c0,0,0.1-0.1,0.1-0.1l-0.2,2c-0.1,0.8-0.2,1.7-0.2,2.6c-0.2,1.6-0.3,3.3-0.5,5c0,0.4-0.1,0.8-0.1,1.2
		c-0.5,0.7-0.9,1.4-1.1,2c-0.2,0.7-0.1,1.3,0.2,1.3c0.1,0,0.3,0,0.4-0.1c-0.6,4.4-1.3,8.9-2.1,13.7c-0.3,1.7-0.6,3.4-0.9,5.1
		c-0.2,0.2-0.5,0.5-0.8,0.9c-0.8,0.9-1.4,1.5-1.8,2c-0.5,0.6-0.8,1-0.6,1.3c0,0.1,0.2,0.2,0.4,0.2c0.3,0,0.6-0.1,1.1-0.3
		c0.4-0.2,0.7-0.4,1.1-0.7c-1.1,5.8-2.4,11.6-3.7,17.2c-0.2,0.9-0.4,1.8-0.6,2.6c-0.2,0.2-0.4,0.4-0.6,0.5c-0.2,0.2-0.5,0.5-0.7,0.8
		l0,0l0,0.1c0,0.1,0,0.1,0,0.2c0.1,0.5,0.1,1.1,0.2,1.7l0,0.1l0,0.1c-0.1,0-0.1,0-0.2,0C58.6,180.5,58.3,180.5,58.1,180.5z
		 M46.2,271.7c0-0.4,0-0.7,0-1.1c0-1.7,0-3.5,0-5.2c0-2.6,0-5.2,0-7.8c0-4.4-0.5-12.8-0.9-20.9c-0.4-7.7-0.9-15-0.9-19
		c-0.1-11-1-27-1.5-35.4c1,0,2,0.1,3.1,0.1l0,0c0,0,0,0,0,0c0.3,2,0.6,4.4,0.8,6.9c0,0,0,0,0,0c0,0.2,0.1,0.5,0.1,0.7c0,0,0,0,0,0.1
		c0,0.2,0.1,0.5,0.1,0.7c0,0,0,0,0,0.1c0,0.2,0,0.5,0.1,0.7c0,0,0,0,0,0.1c0,0.2,0,0.5,0.1,0.7c0,0,0,0,0,0.1c0,0.2,0,0.5,0.1,0.7
		c0,0,0,0,0,0c0,0.3,0,0.5,0.1,0.8c0,0,0,0,0,0c0.4,4,0.7,8.2,1,12.4c0,0,0,0,0,0c0,0.3,0,0.5,0.1,0.8c0,0,0,0,0,0
		c0,0.3,0,0.5,0.1,0.8c0,0,0,0,0,0.1c0,0.3,0,0.5,0.1,0.8c0,0,0,0,0,0.1c0,0.3,0,0.5,0.1,0.8c0,0,0,0,0,0.1c0,0.2,0,0.5,0.1,0.7
		c0,0,0,0.1,0,0.1c0,0.2,0,0.5,0,0.7c0,0,0,0,0,0.1c0,0.2,0,0.5,0,0.7c0,0,0,0,0,0c0.2,2.4,0.3,4.6,0.4,6.7c0,0,0,0.1,0,0.1
		c0,0.2,0,0.4,0,0.5c0,0.1,0,0.1,0,0.2c0,0.2,0,0.3,0,0.5c0,0.1,0,0.1,0,0.2c0,0.2,0,0.3,0,0.5c0,0.1,0,0.1,0,0.2c0,0.1,0,0.3,0,0.4
		c0,0.1,0,0.2,0,0.2c0,0.1,0,0.3,0,0.4c0,0.1,0,0.2,0,0.3c0,0.1,0,0.3,0,0.4c0,0.1,0,0.2,0,0.3c0,0.1,0,0.2,0,0.4c0,0.1,0,0.2,0,0.3
		c0,0.1,0,0.2,0,0.3c0,0.1,0,0.2,0,0.3c0,0.1,0,0.2,0,0.3c0,0.1,0,0.2,0,0.3c0,0.1,0,0.2,0,0.3c0,0.1,0,0.2,0,0.3c0,0.1,0,0.2,0,0.3
		c0,0.1,0,0.2,0,0.3c0,0.1,0,0.2,0,0.3c0,0.1,0,0.2,0,0.3c0,0.1,0,0.2,0,0.3c0,0.1,0,0.2,0,0.3c0,0.1,0,0.1,0,0.2c0,0.1,0,0.2,0,0.3
		c0,0.1,0,0.1,0,0.2c0,0.1,0,0.2,0,0.3c0,0,0,0.1,0,0.1c0,0.1,0,0.3,0,0.4c0,1,0.1,2,0.1,3c0,0.2,0,0.4,0,0.6c0,0.8,0,1.6,0.1,2.4
		c0,0.1,0,0.2,0,0.3c0.4,13.8,0.6,27.5,1.2,41.3l0,0c-1.6-0.1-3.1-0.3-4.6-0.4C46.1,274.7,46.2,273.2,46.2,271.7z M35.1,272.7
		c0-0.2,0-0.5,0-0.7c-0.2-4.5-0.5-9.1-0.7-13.6c-0.4-8.7-3.4-32.8-3.9-41.6c0-0.2,0-0.3,0-0.5c0-0.1,0-0.2,0-0.2c0-0.1,0-0.2,0-0.3
		c0-0.1,0-0.2,0-0.3c0-0.1,0-0.2,0-0.3c0-0.1,0-0.2,0-0.3c0-0.1,0-0.2,0-0.2c0-0.1,0-0.2,0-0.3c0-0.1,0-0.2,0-0.2c0-0.1,0-0.2,0-0.3
		c0-0.1,0-0.1,0-0.2c0-0.1,0-0.2,0-0.3c0-0.1,0-0.1,0-0.2c0-0.1,0-0.2,0-0.3c0-0.1,0-0.2,0-0.2c0-0.1,0-0.2,0-0.3c0-0.1,0-0.2,0-0.2
		c0-0.1,0-0.2,0-0.4c0-0.1,0-0.1,0-0.2c0-0.1,0-0.2,0-0.4c0-0.1,0-0.2,0-0.2c0-0.1,0-0.2,0-0.3c0-0.1,0-0.2,0-0.2c0-0.1,0-0.2,0-0.4
		c0-0.1,0-0.2,0-0.2c0-0.1,0-0.2,0-0.4c0-0.1,0-0.2,0-0.2c0-0.1,0-0.2,0-0.4c0-0.1,0-0.2,0-0.2c0-0.1,0-0.2,0-0.4c0-0.1,0-0.2,0-0.2
		c0-0.1,0-0.2,0-0.4c0-0.1,0-0.2,0-0.2c0-0.1,0-0.2,0-0.4c0-0.1,0-0.2,0-0.2c0-0.1,0-0.2,0-0.3c0-0.1,0-0.2,0-0.3c0-0.1,0-0.2,0-0.3
		c0-0.1,0-0.2,0-0.3c0-0.1,0-0.2,0-0.4c0-0.1,0-0.2,0-0.2c0-0.1,0-0.2,0-0.4c0-0.1,0-0.2,0-0.2c0-0.1,0-0.2,0-0.4c0-0.1,0-0.2,0-0.2
		c0-0.1,0-0.2,0-0.4c0-0.1,0-0.2,0-0.3c0-0.1,0-0.2,0-0.3c0-0.1,0-0.2,0-0.3c0-0.1,0-0.2,0-0.3c0-0.1,0-0.2,0-0.3c0-0.1,0-0.2,0-0.3
		c0-0.1,0-0.2,0-0.3c0-0.1,0-0.2,0-0.3c0-0.1,0-0.2,0-0.3c0-0.1,0-0.2,0-0.3c0-0.1,0-0.2,0-0.3c0-0.1,0-0.2,0-0.3c0-0.1,0-0.2,0-0.3
		c0-0.1,0-0.2,0-0.3c0-0.1,0-0.2,0-0.4c0-0.1,0-0.2,0-0.2c0-0.1,0-0.2,0-0.4c0-0.1,0-0.2,0-0.2c0-0.2,0-0.3,0-0.5c0,0,0-0.1,0-0.1
		c-0.6-6-1.2-11.7-1.6-16c0.9,0.1,1.9,0.2,3.1,0.3c2.4,13.6,5,37.4,5.7,46.7c0.5,6.3,1,12.6,1.4,18.8c0.7,9.1,1.4,18.6,2.2,27.8
		c-1.9-0.4-3.4-0.9-4.6-1.4l0,0c0,0,0,0,0,0C35.1,273.2,35.1,273,35.1,272.7z M55.2,275.5C55.2,275.5,55.2,275.5,55.2,275.5
		c0-0.4,0-0.8,0-1.2c0,0,0,0,0,0c0-0.5,0-1,0.1-1.5c0-0.1,0-0.2,0-0.3c0-0.1,0-0.1,0-0.2c0-0.2,0-0.4,0-0.6
		c0.2-4.5,0.3-8.9,0.6-13.4c0.4-8.6-0.3-32.4,0.1-41c0-0.2,0-0.3,0-0.5c0-0.1,0-0.1,0-0.2c0-0.1,0-0.2,0-0.3c0-0.1,0-0.1,0-0.2
		c0-0.1,0-0.2,0-0.3c0-0.1,0-0.2,0-0.2c0-0.1,0-0.2,0-0.3c0-0.1,0-0.2,0-0.3c0-0.1,0-0.2,0-0.3c0-0.1,0-0.2,0-0.3c0-0.1,0-0.2,0-0.3
		c0-0.1,0-0.2,0-0.3c0-0.1,0-0.2,0-0.3c0-0.1,0-0.2,0-0.3c0-0.1,0-0.2,0-0.3c0-0.1,0-0.2,0-0.3c0-0.1,0-0.2,0-0.3c0-0.1,0-0.2,0-0.3
		c0-0.1,0-0.2,0-0.3c0-0.1,0-0.2,0-0.3c0-0.1,0-0.2,0-0.3c0-0.1,0-0.2,0-0.2c0-0.1,0-0.3,0-0.4c0-0.1,0-0.3,0-0.4c0-0.1,0-0.2,0-0.3
		c0-0.1,0-0.2,0-0.3c0-0.1,0-0.2,0-0.3c0-0.1,0-0.2,0-0.3c0-0.1,0-0.2,0-0.3c0-0.1,0-0.2,0-0.3c0-0.1,0-0.2,0-0.3c0-0.1,0-0.2,0-0.3
		c0-0.1,0-0.2,0-0.3c0-0.1,0-0.2,0-0.3c0-0.1,0-0.2,0-0.3c0-0.1,0-0.2,0-0.3c0-0.1,0-0.2,0-0.3c0-0.1,0-0.2,0-0.3c0-0.1,0-0.2,0-0.3
		c0-0.1,0-0.2,0-0.3c0-0.1,0-0.2,0-0.3c0-0.1,0-0.2,0-0.3c0-0.1,0-0.2,0-0.3c0-0.1,0-0.2,0-0.3c0-0.1,0-0.1,0-0.2c0-0.1,0-0.3,0-0.4
		c0-0.1,0-0.2,0-0.3c0-0.2,0-0.4,0-0.7c0-0.1,0-0.2,0-0.3c0-0.1,0-0.2,0-0.3c0-0.1,0-0.2,0-0.3c0-0.1,0-0.2,0-0.3c0-0.1,0-0.2,0-0.3
		c0-0.1,0-0.2,0-0.3c0-0.1,0-0.2,0-0.3c0-0.1,0-0.2,0-0.3c0-0.1,0-0.2,0-0.3c0-0.1,0-0.2,0-0.3c0-0.1,0-0.2,0-0.3c0-0.1,0-0.2,0-0.3
		c0-0.1,0-0.2,0-0.3c0-0.1,0-0.2,0-0.3c0-0.1,0-0.2,0-0.3c0-0.1,0-0.2,0-0.3c0-0.1,0-0.2,0-0.3c0-0.1,0-0.2,0-0.3c0-0.1,0-0.2,0-0.3
		c0-0.1,0-0.2,0-0.3c0-0.1,0-0.3,0-0.4c0-0.1,0-0.1,0-0.2c0-0.4,0-0.8,0-1.2c0,0,0-0.1,0-0.1c0-0.2,0-0.3,0-0.5c0,0,0-0.1,0-0.1
		c0-0.2,0-0.3,0-0.4c0-0.1,0-0.1,0-0.2c0-0.2,0-0.3,0-0.5c0,0,0-0.1,0-0.1c0-0.2,0-0.3,0-0.5c0,0,0-0.1,0-0.1c0-0.2,0-0.3,0-0.5
		c0,0,0-0.1,0-0.1c0-0.2,0-0.3,0-0.5c0,0,0-0.1,0-0.1c0-0.2,0-0.3,0-0.5c0,0,0-0.1,0-0.1c0-2.9,0-5.6-0.1-7.9c1,0,2,0,3,0
		c0,0,0,0,0.1,0c1.1,13.5,1.4,36.8,1.3,46.3c-0.1,6.2-0.2,12.4-0.3,18.5c-0.2,9.6-0.4,19.5-0.5,29.3c-1.5,0-3.1,0-4.5,0l0,0
		c0,0,0,0,0,0C55.2,276.3,55.2,275.9,55.2,275.5z M90.1,185.6c0,0.1,0,0.2,0,0.2c0,0.1,0,0.2,0,0.3c0,0.1,0,0.1,0,0.2
		c0,0.1,0,0.2,0,0.3c0,0.1,0,0.2,0,0.2c0,0.1,0,0.2,0,0.3c0,0.1,0,0.2,0,0.3c0,0.1,0,0.2,0,0.3c0,0.1,0,0.2,0,0.3c0,0.1,0,0.2,0,0.3
		c0,0.1,0,0.2,0,0.3c0,0.1,0,0.1,0,0.2c0,0.1,0,0.2,0,0.4c0,0.1,0,0.1,0,0.2c0,0.1,0,0.2,0,0.4c0,0.1,0,0.1,0,0.2c0,0.1,0,0.3,0,0.4
		c0,0.1,0,0.1,0,0.2c0,0.1,0,0.3,0,0.4c0,0,0,0.1,0,0.1c0,0.1,0,0.3,0,0.4c0,0,0,0.1,0,0.1c0,0.2,0,0.3,0,0.5c0,0,0,0,0,0.1
		c0,0.2,0,0.3,0,0.5c0,0,0,0,0,0.1c-0.2,2.1-0.4,4.2-0.6,6.4c0,0,0,0,0,0.1c0,0.2,0,0.4,0,0.5c0,0,0,0,0,0.1c0,0.2,0,0.3,0,0.5
		c0,0,0,0.1,0,0.1c0,0.2,0,0.3,0,0.5c0,0,0,0.1,0,0.1c0,0.2,0,0.3,0,0.5c0,0,0,0.1,0,0.1c0,0.2,0,0.3,0,0.5c0,0,0,0.1,0,0.1
		c0,0.1,0,0.3,0,0.4c0,0.1,0,0.1,0,0.2c0,0.1,0,0.3,0,0.4c0,0.1,0,0.1,0,0.2c0,0.1,0,0.3,0,0.4c0,0.1,0,0.1,0,0.2c0,0.1,0,0.3,0,0.4
		c0,0.1,0,0.2,0,0.2c0,0.1,0,0.3,0,0.4c0,0.1,0,0.1,0,0.2c0,0.1,0,0.3,0,0.4c0,0.1,0,0.1,0,0.2c0,0.1,0,0.2,0,0.4c0,0.1,0,0.2,0,0.2
		c0,0.1,0,0.2,0,0.4c0,0.1,0,0.2,0,0.2c0,0.1,0,0.2,0,0.4c0,0.1,0,0.2,0,0.2c0,0.1,0,0.2,0,0.4c0,0.1,0,0.1,0,0.2c0,0.1,0,0.2,0,0.4
		c0,0.1,0,0.2,0,0.2c0,0.1,0,0.2,0,0.3c0,0.1,0,0.2,0,0.2c0,0.1,0,0.2,0,0.4c0,0.1,0,0.2,0,0.2c0,0.1,0,0.2,0,0.3c0,0.1,0,0.2,0,0.2
		c0,0.1,0,0.2,0,0.3c0,0.1,0,0.2,0,0.3c0,0.1,0,0.2,0,0.3c0,0.1,0,0.2,0,0.3c0,0.1,0,0.2,0,0.3c0,0.1,0,0.2,0,0.3c0,0.1,0,0.2,0,0.3
		c0,0.1,0,0.2,0,0.2c0,0.1,0,0.2,0,0.3c0,0.1,0,0.2,0,0.3c0,0.1,0,0.2,0,0.3c0,0.1,0,0.2,0,0.3c0,0.1,0,0.2,0,0.3c0,0.1,0,0.2,0,0.3
		c0,0.1,0,0.2,0,0.3c0,0.1,0,0.2,0,0.3c0,0.1,0,0.2,0,0.3c0,0.1,0,0.2,0,0.3c0,0.1,0,0.2,0,0.2c0,0.1,0,0.2,0,0.3c0,0.1,0,0.1,0,0.2
		c0,0.2,0,0.3,0,0.5c-0.5,8.7-3.5,32.8-3.9,41.6c-0.2,4.5-0.5,9.1-0.7,13.6c0,0.3,0,0.5,0,0.8c0,0.3,0,0.7,0,1c0,0,0,0,0,0l0,0
		c0,0.2-1.6,0.4-2.5,0.6c-0.7,0.2-1.4,0.3-2.1,0.5c0.8-9.3,1.5-18.7,2.2-27.9c0.5-6.1,0.9-12.5,1.4-18.8c0.8-9.3,3.4-33.1,5.7-46.7
		c1.1-0.1,2.2-0.2,3.1-0.3c-0.1,0.8-0.2,1.6-0.3,2.4c0,0,0,0,0,0c0,0.2,0,0.3,0,0.5c0,0,0,0,0,0c0,0.1,0,0.3,0,0.4c0,0,0,0.1,0,0.1
		c0,0.1,0,0.2,0,0.3c0,0.1,0,0.2,0,0.2C90.2,185.4,90.1,185.5,90.1,185.6z"/>
</g>
</svg>
