<?xml version="1.0" encoding="utf-8"?>
<!-- Generator: Adobe Illustrator 19.0.0, SVG Export Plug-In . SVG Version: 6.00 Build 0)  -->
<svg version="1.0" id="Capa_1" xmlns="http://www.w3.org/2000/svg" xmlns:xlink="http://www.w3.org/1999/xlink" x="0px" y="0px"
	 viewBox="0 0 80 80" style="enable-background:new 0 0 80 80;" xml:space="preserve">
<style type="text/css">
	.st0{fill:#074422;}
</style>
<g id="XMLID_6_">
	
		<rect id="XMLID_11_" x="45.7" y="30.1" transform="matrix(-0.7071 -0.7071 0.7071 -0.7071 66.4289 106.9874)" class="st0" width="19.2" height="19.2"/>
	<g id="XMLID_12_">
		<path id="XMLID_14_" class="st0" d="M42.4,37.8c4.1-4.1,8.3-8.2,12.4-12.3l0.6-0.6l0.6,0.6c4.6,4.5,9.1,9,13.7,13.6l0.7,0.7
			l-0.7,0.7c-0.7,0.7-1.5,1.5-2.2,2.2c-3.6,3.7-7.4,7.6-11.3,11.5l-0.8,0.8l-0.8-0.8c-4.7-4.7-9.1-9.6-12.5-14.6
			c-0.1-0.1,0.1-0.2,0.2,0c4.4,4.6,8.8,9.1,13.3,13.6h-0.5c4.5-4.5,9-9.1,13.5-13.7l0.1-0.1v0.7c-4.6-4.5-9.2-8.9-13.9-13.4H56
			l-0.9,1l-7.5,7.7c-1.5,1.6-3,3.2-4.7,4.2C41.5,40.4,41.1,39.1,42.4,37.8z"/>
	</g>
</g>
<g id="XMLID_1_">
	<path id="XMLID_3_" class="st0" d="M47,7.3C35.5,18.5,24.3,30,13,41.4v-2.7c1,1,1.9,1.9,2.9,2.9c10.6,10.6,23.8,21.7,30.7,34.7
		c0.1,0.2-0.2,0.3-0.3,0.1C34.9,64.2,23.1,52.5,11,40.9l-0.1-0.1l-0.7-0.7l0.7-0.8c6.2-6.5,12.4-13.1,18.6-19.6
		c3.2-3.4,6.5-6.8,9.7-10.2c2-2.1,3.8-4.3,6.4-5.4C47.6,3.3,48.6,5.7,47,7.3z"/>
</g>
</svg>
